<svg width="775" height="547" viewBox="0 0 775 547" xmlns="http://www.w3.org/2000/svg">
    <defs>
        <radialGradient cx="50%" cy="50%" fx="50%" fy="50%" r="48.152%" gradientTransform="matrix(0 1 -.7058 0 .853 0)" id="lfeb566rta">
            <stop stop-color="#CFE2EF" offset="0%"/>
            <stop stop-color="#D0E6F4" stop-opacity="0" offset="100%"/>
        </radialGradient>
    </defs>
    <path d="M772.5 547c1.38 0 2.5-1.343 2.5-3s-1.12-3-2.5-3-2.5 1.343-2.5 3 1.12 3 2.5 3zm-27 0c1.38 0 2.5-1.343 2.5-3s-1.12-3-2.5-3-2.5 1.343-2.5 3 1.12 3 2.5 3zm-26 0c1.38 0 2.5-1.343 2.5-3s-1.12-3-2.5-3-2.5 1.343-2.5 3 1.12 3 2.5 3zm-26 0c1.38 0 2.5-1.343 2.5-3s-1.12-3-2.5-3-2.5 1.343-2.5 3 1.12 3 2.5 3zm-27 0c1.38 0 2.5-1.343 2.5-3s-1.12-3-2.5-3-2.5 1.343-2.5 3 1.12 3 2.5 3zm-27 0c1.38 0 2.5-1.343 2.5-3s-1.12-3-2.5-3-2.5 1.343-2.5 3 1.12 3 2.5 3zm-26 0c1.38 0 2.5-1.343 2.5-3s-1.12-3-2.5-3-2.5 1.343-2.5 3 1.12 3 2.5 3zm-26 0c1.38 0 2.5-1.343 2.5-3s-1.12-3-2.5-3-2.5 1.343-2.5 3 1.12 3 2.5 3zm-27 0c1.38 0 2.5-1.343 2.5-3s-1.12-3-2.5-3-2.5 1.343-2.5 3 1.12 3 2.5 3zm-27 0c1.38 0 2.5-1.343 2.5-3s-1.12-3-2.5-3-2.5 1.343-2.5 3 1.12 3 2.5 3zm-27 0c1.38 0 2.5-1.343 2.5-3s-1.12-3-2.5-3-2.5 1.343-2.5 3 1.12 3 2.5 3zm-25 0c1.38 0 2.5-1.343 2.5-3s-1.12-3-2.5-3-2.5 1.343-2.5 3 1.12 3 2.5 3zm-27 0c1.38 0 2.5-1.343 2.5-3s-1.12-3-2.5-3-2.5 1.343-2.5 3 1.12 3 2.5 3zm-27 0c1.38 0 2.5-1.343 2.5-3s-1.12-3-2.5-3-2.5 1.343-2.5 3 1.12 3 2.5 3zm-27 0c1.38 0 2.5-1.343 2.5-3s-1.12-3-2.5-3-2.5 1.343-2.5 3 1.12 3 2.5 3zm-26 0c1.38 0 2.5-1.343 2.5-3s-1.12-3-2.5-3-2.5 1.343-2.5 3 1.12 3 2.5 3zm-26 0c1.38 0 2.5-1.343 2.5-3s-1.12-3-2.5-3-2.5 1.343-2.5 3 1.12 3 2.5 3zm-27 0c1.38 0 2.5-1.343 2.5-3s-1.12-3-2.5-3-2.5 1.343-2.5 3 1.12 3 2.5 3zm-27 0c1.38 0 2.5-1.343 2.5-3s-1.12-3-2.5-3-2.5 1.343-2.5 3 1.12 3 2.5 3zm-26 0c1.38 0 2.5-1.343 2.5-3s-1.12-3-2.5-3-2.5 1.343-2.5 3 1.12 3 2.5 3zm-27 0c1.38 0 2.5-1.343 2.5-3s-1.12-3-2.5-3-2.5 1.343-2.5 3 1.12 3 2.5 3zm-26 0c1.38 0 2.5-1.343 2.5-3s-1.12-3-2.5-3-2.5 1.343-2.5 3 1.12 3 2.5 3zm-27 0c1.38 0 2.5-1.343 2.5-3s-1.12-3-2.5-3-2.5 1.343-2.5 3 1.12 3 2.5 3zm-26 0c1.38 0 2.5-1.343 2.5-3s-1.12-3-2.5-3-2.5 1.343-2.5 3 1.12 3 2.5 3zm-27 0c1.38 0 2.5-1.343 2.5-3s-1.12-3-2.5-3-2.5 1.343-2.5 3 1.12 3 2.5 3zm-27 0c1.38 0 2.5-1.343 2.5-3s-1.12-3-2.5-3-2.5 1.343-2.5 3 1.12 3 2.5 3zm-26 0c1.38 0 2.5-1.343 2.5-3s-1.12-3-2.5-3-2.5 1.343-2.5 3 1.12 3 2.5 3zm-26 0c1.38 0 2.5-1.343 2.5-3s-1.12-3-2.5-3-2.5 1.343-2.5 3 1.12 3 2.5 3zm-27 0c1.38 0 2.5-1.343 2.5-3s-1.12-3-2.5-3-2.5 1.343-2.5 3 1.12 3 2.5 3zm-27 0c1.38 0 2.5-1.343 2.5-3s-1.12-3-2.5-3-2.5 1.343-2.5 3 1.12 3 2.5 3zm770-19c1.38 0 2.5-1.343 2.5-3s-1.12-3-2.5-3-2.5 1.343-2.5 3 1.12 3 2.5 3zm-27 0c1.38 0 2.5-1.343 2.5-3s-1.12-3-2.5-3-2.5 1.343-2.5 3 1.12 3 2.5 3zm-26 0c1.38 0 2.5-1.343 2.5-3s-1.12-3-2.5-3-2.5 1.343-2.5 3 1.12 3 2.5 3zm-26 0c1.38 0 2.5-1.343 2.5-3s-1.12-3-2.5-3-2.5 1.343-2.5 3 1.12 3 2.5 3zm-27 0c1.38 0 2.5-1.343 2.5-3s-1.12-3-2.5-3-2.5 1.343-2.5 3 1.12 3 2.5 3zm-27 0c1.38 0 2.5-1.343 2.5-3s-1.12-3-2.5-3-2.5 1.343-2.5 3 1.12 3 2.5 3zm-26 0c1.38 0 2.5-1.343 2.5-3s-1.12-3-2.5-3-2.5 1.343-2.5 3 1.12 3 2.5 3zm-26 0c1.38 0 2.5-1.343 2.5-3s-1.12-3-2.5-3-2.5 1.343-2.5 3 1.12 3 2.5 3zm-27 0c1.38 0 2.5-1.343 2.5-3s-1.12-3-2.5-3-2.5 1.343-2.5 3 1.12 3 2.5 3zm-27 0c1.38 0 2.5-1.343 2.5-3s-1.12-3-2.5-3-2.5 1.343-2.5 3 1.12 3 2.5 3zm-27 0c1.38 0 2.5-1.343 2.5-3s-1.12-3-2.5-3-2.5 1.343-2.5 3 1.12 3 2.5 3zm-25 0c1.38 0 2.5-1.343 2.5-3s-1.12-3-2.5-3-2.5 1.343-2.5 3 1.12 3 2.5 3zm-27 0c1.38 0 2.5-1.343 2.5-3s-1.12-3-2.5-3-2.5 1.343-2.5 3 1.12 3 2.5 3zm-27 0c1.38 0 2.5-1.343 2.5-3s-1.12-3-2.5-3-2.5 1.343-2.5 3 1.12 3 2.5 3zm-27 0c1.38 0 2.5-1.343 2.5-3s-1.12-3-2.5-3-2.5 1.343-2.5 3 1.12 3 2.5 3zm-26 0c1.38 0 2.5-1.343 2.5-3s-1.12-3-2.5-3-2.5 1.343-2.5 3 1.12 3 2.5 3zm-26 0c1.38 0 2.5-1.343 2.5-3s-1.12-3-2.5-3-2.5 1.343-2.5 3 1.12 3 2.5 3zm-27 0c1.38 0 2.5-1.343 2.5-3s-1.12-3-2.5-3-2.5 1.343-2.5 3 1.12 3 2.5 3zm-27 0c1.38 0 2.5-1.343 2.5-3s-1.12-3-2.5-3-2.5 1.343-2.5 3 1.12 3 2.5 3zm-26 0c1.38 0 2.5-1.343 2.5-3s-1.12-3-2.5-3-2.5 1.343-2.5 3 1.12 3 2.5 3zm-27 0c1.38 0 2.5-1.343 2.5-3s-1.12-3-2.5-3-2.5 1.343-2.5 3 1.12 3 2.5 3zm-26 0c1.38 0 2.5-1.343 2.5-3s-1.12-3-2.5-3-2.5 1.343-2.5 3 1.12 3 2.5 3zm-27 0c1.38 0 2.5-1.343 2.5-3s-1.12-3-2.5-3-2.5 1.343-2.5 3 1.12 3 2.5 3zm-26 0c1.38 0 2.5-1.343 2.5-3s-1.12-3-2.5-3-2.5 1.343-2.5 3 1.12 3 2.5 3zm-27 0c1.38 0 2.5-1.343 2.5-3s-1.12-3-2.5-3-2.5 1.343-2.5 3 1.12 3 2.5 3zm-27 0c1.38 0 2.5-1.343 2.5-3s-1.12-3-2.5-3-2.5 1.343-2.5 3 1.12 3 2.5 3zm-26 0c1.38 0 2.5-1.343 2.5-3s-1.12-3-2.5-3-2.5 1.343-2.5 3 1.12 3 2.5 3zm-26 0c1.38 0 2.5-1.343 2.5-3s-1.12-3-2.5-3-2.5 1.343-2.5 3 1.12 3 2.5 3zm-27 0c1.38 0 2.5-1.343 2.5-3s-1.12-3-2.5-3-2.5 1.343-2.5 3 1.12 3 2.5 3zm-27 0c1.38 0 2.5-1.343 2.5-3s-1.12-3-2.5-3-2.5 1.343-2.5 3 1.12 3 2.5 3zm770-19c1.38 0 2.5-1.343 2.5-3s-1.12-3-2.5-3-2.5 1.343-2.5 3 1.12 3 2.5 3zm-27 0c1.38 0 2.5-1.343 2.5-3s-1.12-3-2.5-3-2.5 1.343-2.5 3 1.12 3 2.5 3zm-26 0c1.38 0 2.5-1.343 2.5-3s-1.12-3-2.5-3-2.5 1.343-2.5 3 1.12 3 2.5 3zm-26 0c1.38 0 2.5-1.343 2.5-3s-1.12-3-2.5-3-2.5 1.343-2.5 3 1.12 3 2.5 3zm-27 0c1.38 0 2.5-1.343 2.5-3s-1.12-3-2.5-3-2.5 1.343-2.5 3 1.12 3 2.5 3zm-27 0c1.38 0 2.5-1.343 2.5-3s-1.12-3-2.5-3-2.5 1.343-2.5 3 1.12 3 2.5 3zm-26 0c1.38 0 2.5-1.343 2.5-3s-1.12-3-2.5-3-2.5 1.343-2.5 3 1.12 3 2.5 3zm-26 0c1.38 0 2.5-1.343 2.5-3s-1.12-3-2.5-3-2.5 1.343-2.5 3 1.12 3 2.5 3zm-27 0c1.38 0 2.5-1.343 2.5-3s-1.12-3-2.5-3-2.5 1.343-2.5 3 1.12 3 2.5 3zm-27 0c1.38 0 2.5-1.343 2.5-3s-1.12-3-2.5-3-2.5 1.343-2.5 3 1.12 3 2.5 3zm-27 0c1.38 0 2.5-1.343 2.5-3s-1.12-3-2.5-3-2.5 1.343-2.5 3 1.12 3 2.5 3zm-25 0c1.38 0 2.5-1.343 2.5-3s-1.12-3-2.5-3-2.5 1.343-2.5 3 1.12 3 2.5 3zm-27 0c1.38 0 2.5-1.343 2.5-3s-1.12-3-2.5-3-2.5 1.343-2.5 3 1.12 3 2.5 3zm-27 0c1.38 0 2.5-1.343 2.5-3s-1.12-3-2.5-3-2.5 1.343-2.5 3 1.12 3 2.5 3zm-27 0c1.38 0 2.5-1.343 2.5-3s-1.12-3-2.5-3-2.5 1.343-2.5 3 1.12 3 2.5 3zm-26 0c1.38 0 2.5-1.343 2.5-3s-1.12-3-2.5-3-2.5 1.343-2.5 3 1.12 3 2.5 3zm-26 0c1.38 0 2.5-1.343 2.5-3s-1.12-3-2.5-3-2.5 1.343-2.5 3 1.12 3 2.5 3zm-27 0c1.38 0 2.5-1.343 2.5-3s-1.12-3-2.5-3-2.5 1.343-2.5 3 1.12 3 2.5 3zm-27 0c1.38 0 2.5-1.343 2.5-3s-1.12-3-2.5-3-2.5 1.343-2.5 3 1.12 3 2.5 3zm-26 0c1.38 0 2.5-1.343 2.5-3s-1.12-3-2.5-3-2.5 1.343-2.5 3 1.12 3 2.5 3zm-27 0c1.38 0 2.5-1.343 2.5-3s-1.12-3-2.5-3-2.5 1.343-2.5 3 1.12 3 2.5 3zm-26 0c1.38 0 2.5-1.343 2.5-3s-1.12-3-2.5-3-2.5 1.343-2.5 3 1.12 3 2.5 3zm-27 0c1.38 0 2.5-1.343 2.5-3s-1.12-3-2.5-3-2.5 1.343-2.5 3 1.12 3 2.5 3zm-26 0c1.38 0 2.5-1.343 2.5-3s-1.12-3-2.5-3-2.5 1.343-2.5 3 1.12 3 2.5 3zm-27 0c1.38 0 2.5-1.343 2.5-3s-1.12-3-2.5-3-2.5 1.343-2.5 3 1.12 3 2.5 3zm-27 0c1.38 0 2.5-1.343 2.5-3s-1.12-3-2.5-3-2.5 1.343-2.5 3 1.12 3 2.5 3zm-26 0c1.38 0 2.5-1.343 2.5-3s-1.12-3-2.5-3-2.5 1.343-2.5 3 1.12 3 2.5 3zm-26 0c1.38 0 2.5-1.343 2.5-3s-1.12-3-2.5-3-2.5 1.343-2.5 3 1.12 3 2.5 3zm-27 0c1.38 0 2.5-1.343 2.5-3s-1.12-3-2.5-3-2.5 1.343-2.5 3 1.12 3 2.5 3zm-27 0c1.38 0 2.5-1.343 2.5-3s-1.12-3-2.5-3-2.5 1.343-2.5 3 1.12 3 2.5 3zm770-18c1.38 0 2.5-1.343 2.5-3s-1.12-3-2.5-3-2.5 1.343-2.5 3 1.12 3 2.5 3zm-27 0c1.38 0 2.5-1.343 2.5-3s-1.12-3-2.5-3-2.5 1.343-2.5 3 1.12 3 2.5 3zm-26 0c1.38 0 2.5-1.343 2.5-3s-1.12-3-2.5-3-2.5 1.343-2.5 3 1.12 3 2.5 3zm-26 0c1.38 0 2.5-1.343 2.5-3s-1.12-3-2.5-3-2.5 1.343-2.5 3 1.12 3 2.5 3zm-27 0c1.38 0 2.5-1.343 2.5-3s-1.12-3-2.5-3-2.5 1.343-2.5 3 1.12 3 2.5 3zm-27 0c1.38 0 2.5-1.343 2.5-3s-1.12-3-2.5-3-2.5 1.343-2.5 3 1.12 3 2.5 3zm-26 0c1.38 0 2.5-1.343 2.5-3s-1.12-3-2.5-3-2.5 1.343-2.5 3 1.12 3 2.5 3zm-26 0c1.38 0 2.5-1.343 2.5-3s-1.12-3-2.5-3-2.5 1.343-2.5 3 1.12 3 2.5 3zm-27 0c1.38 0 2.5-1.343 2.5-3s-1.12-3-2.5-3-2.5 1.343-2.5 3 1.12 3 2.5 3zm-27 0c1.38 0 2.5-1.343 2.5-3s-1.12-3-2.5-3-2.5 1.343-2.5 3 1.12 3 2.5 3zm-27 0c1.38 0 2.5-1.343 2.5-3s-1.12-3-2.5-3-2.5 1.343-2.5 3 1.12 3 2.5 3zm-25 0c1.38 0 2.5-1.343 2.5-3s-1.12-3-2.5-3-2.5 1.343-2.5 3 1.12 3 2.5 3zm-27 0c1.38 0 2.5-1.343 2.5-3s-1.12-3-2.5-3-2.5 1.343-2.5 3 1.12 3 2.5 3zm-27 0c1.38 0 2.5-1.343 2.5-3s-1.12-3-2.5-3-2.5 1.343-2.5 3 1.12 3 2.5 3zm-27 0c1.38 0 2.5-1.343 2.5-3s-1.12-3-2.5-3-2.5 1.343-2.5 3 1.12 3 2.5 3zm-26 0c1.38 0 2.5-1.343 2.5-3s-1.12-3-2.5-3-2.5 1.343-2.5 3 1.12 3 2.5 3zm-26 0c1.38 0 2.5-1.343 2.5-3s-1.12-3-2.5-3-2.5 1.343-2.5 3 1.12 3 2.5 3zm-27 0c1.38 0 2.5-1.343 2.5-3s-1.12-3-2.5-3-2.5 1.343-2.5 3 1.12 3 2.5 3zm-27 0c1.38 0 2.5-1.343 2.5-3s-1.12-3-2.5-3-2.5 1.343-2.5 3 1.12 3 2.5 3zm-26 0c1.38 0 2.5-1.343 2.5-3s-1.12-3-2.5-3-2.5 1.343-2.5 3 1.12 3 2.5 3zm-27 0c1.38 0 2.5-1.343 2.5-3s-1.12-3-2.5-3-2.5 1.343-2.5 3 1.12 3 2.5 3zm-26 0c1.38 0 2.5-1.343 2.5-3s-1.12-3-2.5-3-2.5 1.343-2.5 3 1.12 3 2.5 3zm-27 0c1.38 0 2.5-1.343 2.5-3s-1.12-3-2.5-3-2.5 1.343-2.5 3 1.12 3 2.5 3zm-26 0c1.38 0 2.5-1.343 2.5-3s-1.12-3-2.5-3-2.5 1.343-2.5 3 1.12 3 2.5 3zm-27 0c1.38 0 2.5-1.343 2.5-3s-1.12-3-2.5-3-2.5 1.343-2.5 3 1.12 3 2.5 3zm-27 0c1.38 0 2.5-1.343 2.5-3s-1.12-3-2.5-3-2.5 1.343-2.5 3 1.12 3 2.5 3zm-26 0c1.38 0 2.5-1.343 2.5-3s-1.12-3-2.5-3-2.5 1.343-2.5 3 1.12 3 2.5 3zm-26 0c1.38 0 2.5-1.343 2.5-3s-1.12-3-2.5-3-2.5 1.343-2.5 3 1.12 3 2.5 3zm-27 0c1.38 0 2.5-1.343 2.5-3s-1.12-3-2.5-3-2.5 1.343-2.5 3 1.12 3 2.5 3zm-27 0c1.38 0 2.5-1.343 2.5-3s-1.12-3-2.5-3-2.5 1.343-2.5 3 1.12 3 2.5 3zm770-19c1.38 0 2.5-1.343 2.5-3s-1.12-3-2.5-3-2.5 1.343-2.5 3 1.12 3 2.5 3zm-27 0c1.38 0 2.5-1.343 2.5-3s-1.12-3-2.5-3-2.5 1.343-2.5 3 1.12 3 2.5 3zm-26 0c1.38 0 2.5-1.343 2.5-3s-1.12-3-2.5-3-2.5 1.343-2.5 3 1.12 3 2.5 3zm-26 0c1.38 0 2.5-1.343 2.5-3s-1.12-3-2.5-3-2.5 1.343-2.5 3 1.12 3 2.5 3zm-27 0c1.38 0 2.5-1.343 2.5-3s-1.12-3-2.5-3-2.5 1.343-2.5 3 1.12 3 2.5 3zm-27 0c1.38 0 2.5-1.343 2.5-3s-1.12-3-2.5-3-2.5 1.343-2.5 3 1.12 3 2.5 3zm-26 0c1.38 0 2.5-1.343 2.5-3s-1.12-3-2.5-3-2.5 1.343-2.5 3 1.12 3 2.5 3zm-26 0c1.38 0 2.5-1.343 2.5-3s-1.12-3-2.5-3-2.5 1.343-2.5 3 1.12 3 2.5 3zm-27 0c1.38 0 2.5-1.343 2.5-3s-1.12-3-2.5-3-2.5 1.343-2.5 3 1.12 3 2.5 3zm-27 0c1.38 0 2.5-1.343 2.5-3s-1.12-3-2.5-3-2.5 1.343-2.5 3 1.12 3 2.5 3zm-27 0c1.38 0 2.5-1.343 2.5-3s-1.12-3-2.5-3-2.5 1.343-2.5 3 1.12 3 2.5 3zm-25 0c1.38 0 2.5-1.343 2.5-3s-1.12-3-2.5-3-2.5 1.343-2.5 3 1.12 3 2.5 3zm-27 0c1.38 0 2.5-1.343 2.5-3s-1.12-3-2.5-3-2.5 1.343-2.5 3 1.12 3 2.5 3zm-27 0c1.38 0 2.5-1.343 2.5-3s-1.12-3-2.5-3-2.5 1.343-2.5 3 1.12 3 2.5 3zm-27 0c1.38 0 2.5-1.343 2.5-3s-1.12-3-2.5-3-2.5 1.343-2.5 3 1.12 3 2.5 3zm-26 0c1.38 0 2.5-1.343 2.5-3s-1.12-3-2.5-3-2.5 1.343-2.5 3 1.12 3 2.5 3zm-26 0c1.38 0 2.5-1.343 2.5-3s-1.12-3-2.5-3-2.5 1.343-2.5 3 1.12 3 2.5 3zm-27 0c1.38 0 2.5-1.343 2.5-3s-1.12-3-2.5-3-2.5 1.343-2.5 3 1.12 3 2.5 3zm-27 0c1.38 0 2.5-1.343 2.5-3s-1.12-3-2.5-3-2.5 1.343-2.5 3 1.12 3 2.5 3zm-26 0c1.38 0 2.5-1.343 2.5-3s-1.12-3-2.5-3-2.5 1.343-2.5 3 1.12 3 2.5 3zm-27 0c1.38 0 2.5-1.343 2.5-3s-1.12-3-2.5-3-2.5 1.343-2.5 3 1.12 3 2.5 3zm-26 0c1.38 0 2.5-1.343 2.5-3s-1.12-3-2.5-3-2.5 1.343-2.5 3 1.12 3 2.5 3zm-27 0c1.38 0 2.5-1.343 2.5-3s-1.12-3-2.5-3-2.5 1.343-2.5 3 1.12 3 2.5 3zm-26 0c1.38 0 2.5-1.343 2.5-3s-1.12-3-2.5-3-2.5 1.343-2.5 3 1.12 3 2.5 3zm-27 0c1.38 0 2.5-1.343 2.5-3s-1.12-3-2.5-3-2.5 1.343-2.5 3 1.12 3 2.5 3zm-27 0c1.38 0 2.5-1.343 2.5-3s-1.12-3-2.5-3-2.5 1.343-2.5 3 1.12 3 2.5 3zm-26 0c1.38 0 2.5-1.343 2.5-3s-1.12-3-2.5-3-2.5 1.343-2.5 3 1.12 3 2.5 3zm-26 0c1.38 0 2.5-1.343 2.5-3s-1.12-3-2.5-3-2.5 1.343-2.5 3 1.12 3 2.5 3zm-27 0c1.38 0 2.5-1.343 2.5-3s-1.12-3-2.5-3-2.5 1.343-2.5 3 1.12 3 2.5 3zm-27 0c1.38 0 2.5-1.343 2.5-3s-1.12-3-2.5-3-2.5 1.343-2.5 3 1.12 3 2.5 3zm770-18c1.38 0 2.5-1.343 2.5-3s-1.12-3-2.5-3-2.5 1.343-2.5 3 1.12 3 2.5 3zm-27 0c1.38 0 2.5-1.343 2.5-3s-1.12-3-2.5-3-2.5 1.343-2.5 3 1.12 3 2.5 3zm-26 0c1.38 0 2.5-1.343 2.5-3s-1.12-3-2.5-3-2.5 1.343-2.5 3 1.12 3 2.5 3zm-26 0c1.38 0 2.5-1.343 2.5-3s-1.12-3-2.5-3-2.5 1.343-2.5 3 1.12 3 2.5 3zm-27 0c1.38 0 2.5-1.343 2.5-3s-1.12-3-2.5-3-2.5 1.343-2.5 3 1.12 3 2.5 3zm-27 0c1.38 0 2.5-1.343 2.5-3s-1.12-3-2.5-3-2.5 1.343-2.5 3 1.12 3 2.5 3zm-26 0c1.38 0 2.5-1.343 2.5-3s-1.12-3-2.5-3-2.5 1.343-2.5 3 1.12 3 2.5 3zm-26 0c1.38 0 2.5-1.343 2.5-3s-1.12-3-2.5-3-2.5 1.343-2.5 3 1.12 3 2.5 3zm-27 0c1.38 0 2.5-1.343 2.5-3s-1.12-3-2.5-3-2.5 1.343-2.5 3 1.12 3 2.5 3zm-27 0c1.38 0 2.5-1.343 2.5-3s-1.12-3-2.5-3-2.5 1.343-2.5 3 1.12 3 2.5 3zm-27 0c1.38 0 2.5-1.343 2.5-3s-1.12-3-2.5-3-2.5 1.343-2.5 3 1.12 3 2.5 3zm-25 0c1.38 0 2.5-1.343 2.5-3s-1.12-3-2.5-3-2.5 1.343-2.5 3 1.12 3 2.5 3zm-27 0c1.38 0 2.5-1.343 2.5-3s-1.12-3-2.5-3-2.5 1.343-2.5 3 1.12 3 2.5 3zm-27 0c1.38 0 2.5-1.343 2.5-3s-1.12-3-2.5-3-2.5 1.343-2.5 3 1.12 3 2.5 3zm-27 0c1.38 0 2.5-1.343 2.5-3s-1.12-3-2.5-3-2.5 1.343-2.5 3 1.12 3 2.5 3zm-26 0c1.38 0 2.5-1.343 2.5-3s-1.12-3-2.5-3-2.5 1.343-2.5 3 1.12 3 2.5 3zm-26 0c1.38 0 2.5-1.343 2.5-3s-1.12-3-2.5-3-2.5 1.343-2.5 3 1.12 3 2.5 3zm-27 0c1.38 0 2.5-1.343 2.5-3s-1.12-3-2.5-3-2.5 1.343-2.5 3 1.12 3 2.5 3zm-27 0c1.38 0 2.5-1.343 2.5-3s-1.12-3-2.5-3-2.5 1.343-2.5 3 1.12 3 2.5 3zm-26 0c1.38 0 2.5-1.343 2.5-3s-1.12-3-2.5-3-2.5 1.343-2.5 3 1.12 3 2.5 3zm-27 0c1.38 0 2.5-1.343 2.5-3s-1.12-3-2.5-3-2.5 1.343-2.5 3 1.12 3 2.5 3zm-26 0c1.38 0 2.5-1.343 2.5-3s-1.12-3-2.5-3-2.5 1.343-2.5 3 1.12 3 2.5 3zm-27 0c1.38 0 2.5-1.343 2.5-3s-1.12-3-2.5-3-2.5 1.343-2.5 3 1.12 3 2.5 3zm-26 0c1.38 0 2.5-1.343 2.5-3s-1.12-3-2.5-3-2.5 1.343-2.5 3 1.12 3 2.5 3zm-27 0c1.38 0 2.5-1.343 2.5-3s-1.12-3-2.5-3-2.5 1.343-2.5 3 1.12 3 2.5 3zm-27 0c1.38 0 2.5-1.343 2.5-3s-1.12-3-2.5-3-2.5 1.343-2.5 3 1.12 3 2.5 3zm-26 0c1.38 0 2.5-1.343 2.5-3s-1.12-3-2.5-3-2.5 1.343-2.5 3 1.12 3 2.5 3zm-26 0c1.38 0 2.5-1.343 2.5-3s-1.12-3-2.5-3-2.5 1.343-2.5 3 1.12 3 2.5 3zm-27 0c1.38 0 2.5-1.343 2.5-3s-1.12-3-2.5-3-2.5 1.343-2.5 3 1.12 3 2.5 3zm-27 0c1.38 0 2.5-1.343 2.5-3s-1.12-3-2.5-3-2.5 1.343-2.5 3 1.12 3 2.5 3zm770-19c1.38 0 2.5-1.343 2.5-3s-1.12-3-2.5-3-2.5 1.343-2.5 3 1.12 3 2.5 3zm-27 0c1.38 0 2.5-1.343 2.5-3s-1.12-3-2.5-3-2.5 1.343-2.5 3 1.12 3 2.5 3zm-26 0c1.38 0 2.5-1.343 2.5-3s-1.12-3-2.5-3-2.5 1.343-2.5 3 1.12 3 2.5 3zm-26 0c1.38 0 2.5-1.343 2.5-3s-1.12-3-2.5-3-2.5 1.343-2.5 3 1.12 3 2.5 3zm-27 0c1.38 0 2.5-1.343 2.5-3s-1.12-3-2.5-3-2.5 1.343-2.5 3 1.12 3 2.5 3zm-27 0c1.38 0 2.5-1.343 2.5-3s-1.12-3-2.5-3-2.5 1.343-2.5 3 1.12 3 2.5 3zm-26 0c1.38 0 2.5-1.343 2.5-3s-1.12-3-2.5-3-2.5 1.343-2.5 3 1.12 3 2.5 3zm-26 0c1.38 0 2.5-1.343 2.5-3s-1.12-3-2.5-3-2.5 1.343-2.5 3 1.12 3 2.5 3zm-27 0c1.38 0 2.5-1.343 2.5-3s-1.12-3-2.5-3-2.5 1.343-2.5 3 1.12 3 2.5 3zm-27 0c1.38 0 2.5-1.343 2.5-3s-1.12-3-2.5-3-2.5 1.343-2.5 3 1.12 3 2.5 3zm-27 0c1.38 0 2.5-1.343 2.5-3s-1.12-3-2.5-3-2.5 1.343-2.5 3 1.12 3 2.5 3zm-25 0c1.38 0 2.5-1.343 2.5-3s-1.12-3-2.5-3-2.5 1.343-2.5 3 1.12 3 2.5 3zm-27 0c1.38 0 2.5-1.343 2.5-3s-1.12-3-2.5-3-2.5 1.343-2.5 3 1.12 3 2.5 3zm-27 0c1.38 0 2.5-1.343 2.5-3s-1.12-3-2.5-3-2.5 1.343-2.5 3 1.12 3 2.5 3zm-27 0c1.38 0 2.5-1.343 2.5-3s-1.12-3-2.5-3-2.5 1.343-2.5 3 1.12 3 2.5 3zm-26 0c1.38 0 2.5-1.343 2.5-3s-1.12-3-2.5-3-2.5 1.343-2.5 3 1.12 3 2.5 3zm-26 0c1.38 0 2.5-1.343 2.5-3s-1.12-3-2.5-3-2.5 1.343-2.5 3 1.12 3 2.5 3zm-27 0c1.38 0 2.5-1.343 2.5-3s-1.12-3-2.5-3-2.5 1.343-2.5 3 1.12 3 2.5 3zm-27 0c1.38 0 2.5-1.343 2.5-3s-1.12-3-2.5-3-2.5 1.343-2.5 3 1.12 3 2.5 3zm-26 0c1.38 0 2.5-1.343 2.5-3s-1.12-3-2.5-3-2.5 1.343-2.5 3 1.12 3 2.5 3zm-27 0c1.38 0 2.5-1.343 2.5-3s-1.12-3-2.5-3-2.5 1.343-2.5 3 1.12 3 2.5 3zm-26 0c1.38 0 2.5-1.343 2.5-3s-1.12-3-2.5-3-2.5 1.343-2.5 3 1.12 3 2.5 3zm-27 0c1.38 0 2.5-1.343 2.5-3s-1.12-3-2.5-3-2.5 1.343-2.5 3 1.12 3 2.5 3zm-26 0c1.38 0 2.5-1.343 2.5-3s-1.12-3-2.5-3-2.5 1.343-2.5 3 1.12 3 2.5 3zm-27 0c1.38 0 2.5-1.343 2.5-3s-1.12-3-2.5-3-2.5 1.343-2.5 3 1.12 3 2.5 3zm-27 0c1.38 0 2.5-1.343 2.5-3s-1.12-3-2.5-3-2.5 1.343-2.5 3 1.12 3 2.5 3zm-26 0c1.38 0 2.5-1.343 2.5-3s-1.12-3-2.5-3-2.5 1.343-2.5 3 1.12 3 2.5 3zm-26 0c1.38 0 2.5-1.343 2.5-3s-1.12-3-2.5-3-2.5 1.343-2.5 3 1.12 3 2.5 3zm-27 0c1.38 0 2.5-1.343 2.5-3s-1.12-3-2.5-3-2.5 1.343-2.5 3 1.12 3 2.5 3zm-27 0c1.38 0 2.5-1.343 2.5-3s-1.12-3-2.5-3-2.5 1.343-2.5 3 1.12 3 2.5 3zm770-19c1.38 0 2.5-1.343 2.5-3s-1.12-3-2.5-3-2.5 1.343-2.5 3 1.12 3 2.5 3zm-27 0c1.38 0 2.5-1.343 2.5-3s-1.12-3-2.5-3-2.5 1.343-2.5 3 1.12 3 2.5 3zm-26 0c1.38 0 2.5-1.343 2.5-3s-1.12-3-2.5-3-2.5 1.343-2.5 3 1.12 3 2.5 3zm-26 0c1.38 0 2.5-1.343 2.5-3s-1.12-3-2.5-3-2.5 1.343-2.5 3 1.12 3 2.5 3zm-27 0c1.38 0 2.5-1.343 2.5-3s-1.12-3-2.5-3-2.5 1.343-2.5 3 1.12 3 2.5 3zm-27 0c1.38 0 2.5-1.343 2.5-3s-1.12-3-2.5-3-2.5 1.343-2.5 3 1.12 3 2.5 3zm-26 0c1.38 0 2.5-1.343 2.5-3s-1.12-3-2.5-3-2.5 1.343-2.5 3 1.12 3 2.5 3zm-26 0c1.38 0 2.5-1.343 2.5-3s-1.12-3-2.5-3-2.5 1.343-2.5 3 1.12 3 2.5 3zm-27 0c1.38 0 2.5-1.343 2.5-3s-1.12-3-2.5-3-2.5 1.343-2.5 3 1.12 3 2.5 3zm-27 0c1.38 0 2.5-1.343 2.5-3s-1.12-3-2.5-3-2.5 1.343-2.5 3 1.12 3 2.5 3zm-27 0c1.38 0 2.5-1.343 2.5-3s-1.12-3-2.5-3-2.5 1.343-2.5 3 1.12 3 2.5 3zm-25 0c1.38 0 2.5-1.343 2.5-3s-1.12-3-2.5-3-2.5 1.343-2.5 3 1.12 3 2.5 3zm-27 0c1.38 0 2.5-1.343 2.5-3s-1.12-3-2.5-3-2.5 1.343-2.5 3 1.12 3 2.5 3zm-27 0c1.38 0 2.5-1.343 2.5-3s-1.12-3-2.5-3-2.5 1.343-2.5 3 1.12 3 2.5 3zm-27 0c1.38 0 2.5-1.343 2.5-3s-1.12-3-2.5-3-2.5 1.343-2.5 3 1.12 3 2.5 3zm-26 0c1.38 0 2.5-1.343 2.5-3s-1.12-3-2.5-3-2.5 1.343-2.5 3 1.12 3 2.5 3zm-26 0c1.38 0 2.5-1.343 2.5-3s-1.12-3-2.5-3-2.5 1.343-2.5 3 1.12 3 2.5 3zm-27 0c1.38 0 2.5-1.343 2.5-3s-1.12-3-2.5-3-2.5 1.343-2.5 3 1.12 3 2.5 3zm-27 0c1.38 0 2.5-1.343 2.5-3s-1.12-3-2.5-3-2.5 1.343-2.5 3 1.12 3 2.5 3zm-26 0c1.38 0 2.5-1.343 2.5-3s-1.12-3-2.5-3-2.5 1.343-2.5 3 1.12 3 2.5 3zm-27 0c1.38 0 2.5-1.343 2.5-3s-1.12-3-2.5-3-2.5 1.343-2.5 3 1.12 3 2.5 3zm-26 0c1.38 0 2.5-1.343 2.5-3s-1.12-3-2.5-3-2.5 1.343-2.5 3 1.12 3 2.5 3zm-27 0c1.38 0 2.5-1.343 2.5-3s-1.12-3-2.5-3-2.5 1.343-2.5 3 1.12 3 2.5 3zm-26 0c1.38 0 2.5-1.343 2.5-3s-1.12-3-2.5-3-2.5 1.343-2.5 3 1.12 3 2.5 3zm-27 0c1.38 0 2.5-1.343 2.5-3s-1.12-3-2.5-3-2.5 1.343-2.5 3 1.12 3 2.5 3zm-27 0c1.38 0 2.5-1.343 2.5-3s-1.12-3-2.5-3-2.5 1.343-2.5 3 1.12 3 2.5 3zm-26 0c1.38 0 2.5-1.343 2.5-3s-1.12-3-2.5-3-2.5 1.343-2.5 3 1.12 3 2.5 3zm-26 0c1.38 0 2.5-1.343 2.5-3s-1.12-3-2.5-3-2.5 1.343-2.5 3 1.12 3 2.5 3zm-27 0c1.38 0 2.5-1.343 2.5-3s-1.12-3-2.5-3-2.5 1.343-2.5 3 1.12 3 2.5 3zm-27 0c1.38 0 2.5-1.343 2.5-3s-1.12-3-2.5-3-2.5 1.343-2.5 3 1.12 3 2.5 3zm770-18c1.38 0 2.5-1.343 2.5-3s-1.12-3-2.5-3-2.5 1.343-2.5 3 1.12 3 2.5 3zm-27 0c1.38 0 2.5-1.343 2.5-3s-1.12-3-2.5-3-2.5 1.343-2.5 3 1.12 3 2.5 3zm-26 0c1.38 0 2.5-1.343 2.5-3s-1.12-3-2.5-3-2.5 1.343-2.5 3 1.12 3 2.5 3zm-26 0c1.38 0 2.5-1.343 2.5-3s-1.12-3-2.5-3-2.5 1.343-2.5 3 1.12 3 2.5 3zm-27 0c1.38 0 2.5-1.343 2.5-3s-1.12-3-2.5-3-2.5 1.343-2.5 3 1.12 3 2.5 3zm-27 0c1.38 0 2.5-1.343 2.5-3s-1.12-3-2.5-3-2.5 1.343-2.5 3 1.12 3 2.5 3zm-26 0c1.38 0 2.5-1.343 2.5-3s-1.12-3-2.5-3-2.5 1.343-2.5 3 1.12 3 2.5 3zm-26 0c1.38 0 2.5-1.343 2.5-3s-1.12-3-2.5-3-2.5 1.343-2.5 3 1.12 3 2.5 3zm-27 0c1.38 0 2.5-1.343 2.5-3s-1.12-3-2.5-3-2.5 1.343-2.5 3 1.12 3 2.5 3zm-27 0c1.38 0 2.5-1.343 2.5-3s-1.12-3-2.5-3-2.5 1.343-2.5 3 1.12 3 2.5 3zm-27 0c1.38 0 2.5-1.343 2.5-3s-1.12-3-2.5-3-2.5 1.343-2.5 3 1.12 3 2.5 3zm-25 0c1.38 0 2.5-1.343 2.5-3s-1.12-3-2.5-3-2.5 1.343-2.5 3 1.12 3 2.5 3zm-27 0c1.38 0 2.5-1.343 2.5-3s-1.12-3-2.5-3-2.5 1.343-2.5 3 1.12 3 2.5 3zm-27 0c1.38 0 2.5-1.343 2.5-3s-1.12-3-2.5-3-2.5 1.343-2.5 3 1.12 3 2.5 3zm-27 0c1.38 0 2.5-1.343 2.5-3s-1.12-3-2.5-3-2.5 1.343-2.5 3 1.12 3 2.5 3zm-26 0c1.38 0 2.5-1.343 2.5-3s-1.12-3-2.5-3-2.5 1.343-2.5 3 1.12 3 2.5 3zm-26 0c1.38 0 2.5-1.343 2.5-3s-1.12-3-2.5-3-2.5 1.343-2.5 3 1.12 3 2.5 3zm-27 0c1.38 0 2.5-1.343 2.5-3s-1.12-3-2.5-3-2.5 1.343-2.5 3 1.12 3 2.5 3zm-27 0c1.38 0 2.5-1.343 2.5-3s-1.12-3-2.5-3-2.5 1.343-2.5 3 1.12 3 2.5 3zm-26 0c1.38 0 2.5-1.343 2.5-3s-1.12-3-2.5-3-2.5 1.343-2.5 3 1.12 3 2.5 3zm-27 0c1.38 0 2.5-1.343 2.5-3s-1.12-3-2.5-3-2.5 1.343-2.5 3 1.12 3 2.5 3zm-26 0c1.38 0 2.5-1.343 2.5-3s-1.12-3-2.5-3-2.5 1.343-2.5 3 1.12 3 2.5 3zm-27 0c1.38 0 2.5-1.343 2.5-3s-1.12-3-2.5-3-2.5 1.343-2.5 3 1.12 3 2.5 3zm-26 0c1.38 0 2.5-1.343 2.5-3s-1.12-3-2.5-3-2.5 1.343-2.5 3 1.12 3 2.5 3zm-27 0c1.38 0 2.5-1.343 2.5-3s-1.12-3-2.5-3-2.5 1.343-2.5 3 1.12 3 2.5 3zm-27 0c1.38 0 2.5-1.343 2.5-3s-1.12-3-2.5-3-2.5 1.343-2.5 3 1.12 3 2.5 3zm-26 0c1.38 0 2.5-1.343 2.5-3s-1.12-3-2.5-3-2.5 1.343-2.5 3 1.12 3 2.5 3zm-26 0c1.38 0 2.5-1.343 2.5-3s-1.12-3-2.5-3-2.5 1.343-2.5 3 1.12 3 2.5 3zm-27 0c1.38 0 2.5-1.343 2.5-3s-1.12-3-2.5-3-2.5 1.343-2.5 3 1.12 3 2.5 3zm-27 0c1.38 0 2.5-1.343 2.5-3s-1.12-3-2.5-3-2.5 1.343-2.5 3 1.12 3 2.5 3zm770-19c1.38 0 2.5-1.343 2.5-3s-1.12-3-2.5-3-2.5 1.343-2.5 3 1.12 3 2.5 3zm-27 0c1.38 0 2.5-1.343 2.5-3s-1.12-3-2.5-3-2.5 1.343-2.5 3 1.12 3 2.5 3zm-26 0c1.38 0 2.5-1.343 2.5-3s-1.12-3-2.5-3-2.5 1.343-2.5 3 1.12 3 2.5 3zm-26 0c1.38 0 2.5-1.343 2.5-3s-1.12-3-2.5-3-2.5 1.343-2.5 3 1.12 3 2.5 3zm-27 0c1.38 0 2.5-1.343 2.5-3s-1.12-3-2.5-3-2.5 1.343-2.5 3 1.12 3 2.5 3zm-27 0c1.38 0 2.5-1.343 2.5-3s-1.12-3-2.5-3-2.5 1.343-2.5 3 1.12 3 2.5 3zm-26 0c1.38 0 2.5-1.343 2.5-3s-1.12-3-2.5-3-2.5 1.343-2.5 3 1.12 3 2.5 3zm-26 0c1.38 0 2.5-1.343 2.5-3s-1.12-3-2.5-3-2.5 1.343-2.5 3 1.12 3 2.5 3zm-27 0c1.38 0 2.5-1.343 2.5-3s-1.12-3-2.5-3-2.5 1.343-2.5 3 1.12 3 2.5 3zm-27 0c1.38 0 2.5-1.343 2.5-3s-1.12-3-2.5-3-2.5 1.343-2.5 3 1.12 3 2.5 3zm-27 0c1.38 0 2.5-1.343 2.5-3s-1.12-3-2.5-3-2.5 1.343-2.5 3 1.12 3 2.5 3zm-25 0c1.38 0 2.5-1.343 2.5-3s-1.12-3-2.5-3-2.5 1.343-2.5 3 1.12 3 2.5 3zm-27 0c1.38 0 2.5-1.343 2.5-3s-1.12-3-2.5-3-2.5 1.343-2.5 3 1.12 3 2.5 3zm-27 0c1.38 0 2.5-1.343 2.5-3s-1.12-3-2.5-3-2.5 1.343-2.5 3 1.12 3 2.5 3zm-27 0c1.38 0 2.5-1.343 2.5-3s-1.12-3-2.5-3-2.5 1.343-2.5 3 1.12 3 2.5 3zm-26 0c1.38 0 2.5-1.343 2.5-3s-1.12-3-2.5-3-2.5 1.343-2.5 3 1.12 3 2.5 3zm-26 0c1.38 0 2.5-1.343 2.5-3s-1.12-3-2.5-3-2.5 1.343-2.5 3 1.12 3 2.5 3zm-27 0c1.38 0 2.5-1.343 2.5-3s-1.12-3-2.5-3-2.5 1.343-2.5 3 1.12 3 2.5 3zm-27 0c1.38 0 2.5-1.343 2.5-3s-1.12-3-2.5-3-2.5 1.343-2.5 3 1.12 3 2.5 3zm-26 0c1.38 0 2.5-1.343 2.5-3s-1.12-3-2.5-3-2.5 1.343-2.5 3 1.12 3 2.5 3zm-27 0c1.38 0 2.5-1.343 2.5-3s-1.12-3-2.5-3-2.5 1.343-2.5 3 1.12 3 2.5 3zm-26 0c1.38 0 2.5-1.343 2.5-3s-1.12-3-2.5-3-2.5 1.343-2.5 3 1.12 3 2.5 3zm-27 0c1.38 0 2.5-1.343 2.5-3s-1.12-3-2.5-3-2.5 1.343-2.5 3 1.12 3 2.5 3zm-26 0c1.38 0 2.5-1.343 2.5-3s-1.12-3-2.5-3-2.5 1.343-2.5 3 1.12 3 2.5 3zm-27 0c1.38 0 2.5-1.343 2.5-3s-1.12-3-2.5-3-2.5 1.343-2.5 3 1.12 3 2.5 3zm-27 0c1.38 0 2.5-1.343 2.5-3s-1.12-3-2.5-3-2.5 1.343-2.5 3 1.12 3 2.5 3zm-26 0c1.38 0 2.5-1.343 2.5-3s-1.12-3-2.5-3-2.5 1.343-2.5 3 1.12 3 2.5 3zm-26 0c1.38 0 2.5-1.343 2.5-3s-1.12-3-2.5-3-2.5 1.343-2.5 3 1.12 3 2.5 3zm-27 0c1.38 0 2.5-1.343 2.5-3s-1.12-3-2.5-3-2.5 1.343-2.5 3 1.12 3 2.5 3zm-27 0c1.38 0 2.5-1.343 2.5-3s-1.12-3-2.5-3-2.5 1.343-2.5 3 1.12 3 2.5 3zm770-19c1.38 0 2.5-1.343 2.5-3s-1.12-3-2.5-3-2.5 1.343-2.5 3 1.12 3 2.5 3zm-27 0c1.38 0 2.5-1.343 2.5-3s-1.12-3-2.5-3-2.5 1.343-2.5 3 1.12 3 2.5 3zm-26 0c1.38 0 2.5-1.343 2.5-3s-1.12-3-2.5-3-2.5 1.343-2.5 3 1.12 3 2.5 3zm-26 0c1.38 0 2.5-1.343 2.5-3s-1.12-3-2.5-3-2.5 1.343-2.5 3 1.12 3 2.5 3zm-27 0c1.38 0 2.5-1.343 2.5-3s-1.12-3-2.5-3-2.5 1.343-2.5 3 1.12 3 2.5 3zm-27 0c1.38 0 2.5-1.343 2.5-3s-1.12-3-2.5-3-2.5 1.343-2.5 3 1.12 3 2.5 3zm-26 0c1.38 0 2.5-1.343 2.5-3s-1.12-3-2.5-3-2.5 1.343-2.5 3 1.12 3 2.5 3zm-26 0c1.38 0 2.5-1.343 2.5-3s-1.12-3-2.5-3-2.5 1.343-2.5 3 1.12 3 2.5 3zm-27 0c1.38 0 2.5-1.343 2.5-3s-1.12-3-2.5-3-2.5 1.343-2.5 3 1.12 3 2.5 3zm-27 0c1.38 0 2.5-1.343 2.5-3s-1.12-3-2.5-3-2.5 1.343-2.5 3 1.12 3 2.5 3zm-27 0c1.38 0 2.5-1.343 2.5-3s-1.12-3-2.5-3-2.5 1.343-2.5 3 1.12 3 2.5 3zm-25 0c1.38 0 2.5-1.343 2.5-3s-1.12-3-2.5-3-2.5 1.343-2.5 3 1.12 3 2.5 3zm-27 0c1.38 0 2.5-1.343 2.5-3s-1.12-3-2.5-3-2.5 1.343-2.5 3 1.12 3 2.5 3zm-27 0c1.38 0 2.5-1.343 2.5-3s-1.12-3-2.5-3-2.5 1.343-2.5 3 1.12 3 2.5 3zm-27 0c1.38 0 2.5-1.343 2.5-3s-1.12-3-2.5-3-2.5 1.343-2.5 3 1.12 3 2.5 3zm-26 0c1.38 0 2.5-1.343 2.5-3s-1.12-3-2.5-3-2.5 1.343-2.5 3 1.12 3 2.5 3zm-26 0c1.38 0 2.5-1.343 2.5-3s-1.12-3-2.5-3-2.5 1.343-2.5 3 1.12 3 2.5 3zm-27 0c1.38 0 2.5-1.343 2.5-3s-1.12-3-2.5-3-2.5 1.343-2.5 3 1.12 3 2.5 3zm-27 0c1.38 0 2.5-1.343 2.5-3s-1.12-3-2.5-3-2.5 1.343-2.5 3 1.12 3 2.5 3zm-26 0c1.38 0 2.5-1.343 2.5-3s-1.12-3-2.5-3-2.5 1.343-2.5 3 1.12 3 2.5 3zm-27 0c1.38 0 2.5-1.343 2.5-3s-1.12-3-2.5-3-2.5 1.343-2.5 3 1.12 3 2.5 3zm-26 0c1.38 0 2.5-1.343 2.5-3s-1.12-3-2.5-3-2.5 1.343-2.5 3 1.12 3 2.5 3zm-27 0c1.38 0 2.5-1.343 2.5-3s-1.12-3-2.5-3-2.5 1.343-2.5 3 1.12 3 2.5 3zm-26 0c1.38 0 2.5-1.343 2.5-3s-1.12-3-2.5-3-2.5 1.343-2.5 3 1.12 3 2.5 3zm-27 0c1.38 0 2.5-1.343 2.5-3s-1.12-3-2.5-3-2.5 1.343-2.5 3 1.12 3 2.5 3zm-27 0c1.38 0 2.5-1.343 2.5-3s-1.12-3-2.5-3-2.5 1.343-2.5 3 1.12 3 2.5 3zm-26 0c1.38 0 2.5-1.343 2.5-3s-1.12-3-2.5-3-2.5 1.343-2.5 3 1.12 3 2.5 3zm-26 0c1.38 0 2.5-1.343 2.5-3s-1.12-3-2.5-3-2.5 1.343-2.5 3 1.12 3 2.5 3zm-27 0c1.38 0 2.5-1.343 2.5-3s-1.12-3-2.5-3-2.5 1.343-2.5 3 1.12 3 2.5 3zm-27 0c1.38 0 2.5-1.343 2.5-3s-1.12-3-2.5-3-2.5 1.343-2.5 3 1.12 3 2.5 3zm770-18c1.38 0 2.5-1.343 2.5-3s-1.12-3-2.5-3-2.5 1.343-2.5 3 1.12 3 2.5 3zm-27 0c1.38 0 2.5-1.343 2.5-3s-1.12-3-2.5-3-2.5 1.343-2.5 3 1.12 3 2.5 3zm-26 0c1.38 0 2.5-1.343 2.5-3s-1.12-3-2.5-3-2.5 1.343-2.5 3 1.12 3 2.5 3zm-26 0c1.38 0 2.5-1.343 2.5-3s-1.12-3-2.5-3-2.5 1.343-2.5 3 1.12 3 2.5 3zm-27 0c1.38 0 2.5-1.343 2.5-3s-1.12-3-2.5-3-2.5 1.343-2.5 3 1.12 3 2.5 3zm-27 0c1.38 0 2.5-1.343 2.5-3s-1.12-3-2.5-3-2.5 1.343-2.5 3 1.12 3 2.5 3zm-26 0c1.38 0 2.5-1.343 2.5-3s-1.12-3-2.5-3-2.5 1.343-2.5 3 1.12 3 2.5 3zm-26 0c1.38 0 2.5-1.343 2.5-3s-1.12-3-2.5-3-2.5 1.343-2.5 3 1.12 3 2.5 3zm-27 0c1.38 0 2.5-1.343 2.5-3s-1.12-3-2.5-3-2.5 1.343-2.5 3 1.12 3 2.5 3zm-27 0c1.38 0 2.5-1.343 2.5-3s-1.12-3-2.5-3-2.5 1.343-2.5 3 1.12 3 2.5 3zm-27 0c1.38 0 2.5-1.343 2.5-3s-1.12-3-2.5-3-2.5 1.343-2.5 3 1.12 3 2.5 3zm-25 0c1.38 0 2.5-1.343 2.5-3s-1.12-3-2.5-3-2.5 1.343-2.5 3 1.12 3 2.5 3zm-27 0c1.38 0 2.5-1.343 2.5-3s-1.12-3-2.5-3-2.5 1.343-2.5 3 1.12 3 2.5 3zm-27 0c1.38 0 2.5-1.343 2.5-3s-1.12-3-2.5-3-2.5 1.343-2.5 3 1.12 3 2.5 3zm-27 0c1.38 0 2.5-1.343 2.5-3s-1.12-3-2.5-3-2.5 1.343-2.5 3 1.12 3 2.5 3zm-26 0c1.38 0 2.5-1.343 2.5-3s-1.12-3-2.5-3-2.5 1.343-2.5 3 1.12 3 2.5 3zm-26 0c1.38 0 2.5-1.343 2.5-3s-1.12-3-2.5-3-2.5 1.343-2.5 3 1.12 3 2.5 3zm-27 0c1.38 0 2.5-1.343 2.5-3s-1.12-3-2.5-3-2.5 1.343-2.5 3 1.12 3 2.5 3zm-27 0c1.38 0 2.5-1.343 2.5-3s-1.12-3-2.5-3-2.5 1.343-2.5 3 1.12 3 2.5 3zm-26 0c1.38 0 2.5-1.343 2.5-3s-1.12-3-2.5-3-2.5 1.343-2.5 3 1.12 3 2.5 3zm-27 0c1.38 0 2.5-1.343 2.5-3s-1.12-3-2.5-3-2.5 1.343-2.5 3 1.12 3 2.5 3zm-26 0c1.38 0 2.5-1.343 2.5-3s-1.12-3-2.5-3-2.5 1.343-2.5 3 1.12 3 2.5 3zm-27 0c1.38 0 2.5-1.343 2.5-3s-1.12-3-2.5-3-2.5 1.343-2.5 3 1.12 3 2.5 3zm-26 0c1.38 0 2.5-1.343 2.5-3s-1.12-3-2.5-3-2.5 1.343-2.5 3 1.12 3 2.5 3zm-27 0c1.38 0 2.5-1.343 2.5-3s-1.12-3-2.5-3-2.5 1.343-2.5 3 1.12 3 2.5 3zm-27 0c1.38 0 2.5-1.343 2.5-3s-1.12-3-2.5-3-2.5 1.343-2.5 3 1.12 3 2.5 3zm-26 0c1.38 0 2.5-1.343 2.5-3s-1.12-3-2.5-3-2.5 1.343-2.5 3 1.12 3 2.5 3zm-26 0c1.38 0 2.5-1.343 2.5-3s-1.12-3-2.5-3-2.5 1.343-2.5 3 1.12 3 2.5 3zm-27 0c1.38 0 2.5-1.343 2.5-3s-1.12-3-2.5-3-2.5 1.343-2.5 3 1.12 3 2.5 3zm-27 0c1.38 0 2.5-1.343 2.5-3s-1.12-3-2.5-3-2.5 1.343-2.5 3 1.12 3 2.5 3zm770-19c1.38 0 2.5-1.343 2.5-3s-1.12-3-2.5-3-2.5 1.343-2.5 3 1.12 3 2.5 3zm-27 0c1.38 0 2.5-1.343 2.5-3s-1.12-3-2.5-3-2.5 1.343-2.5 3 1.12 3 2.5 3zm-26 0c1.38 0 2.5-1.343 2.5-3s-1.12-3-2.5-3-2.5 1.343-2.5 3 1.12 3 2.5 3zm-26 0c1.38 0 2.5-1.343 2.5-3s-1.12-3-2.5-3-2.5 1.343-2.5 3 1.12 3 2.5 3zm-27 0c1.38 0 2.5-1.343 2.5-3s-1.12-3-2.5-3-2.5 1.343-2.5 3 1.12 3 2.5 3zm-27 0c1.38 0 2.5-1.343 2.5-3s-1.12-3-2.5-3-2.5 1.343-2.5 3 1.12 3 2.5 3zm-26 0c1.38 0 2.5-1.343 2.5-3s-1.12-3-2.5-3-2.5 1.343-2.5 3 1.12 3 2.5 3zm-26 0c1.38 0 2.5-1.343 2.5-3s-1.12-3-2.5-3-2.5 1.343-2.5 3 1.12 3 2.5 3zm-27 0c1.38 0 2.5-1.343 2.5-3s-1.12-3-2.5-3-2.5 1.343-2.5 3 1.12 3 2.5 3zm-27 0c1.38 0 2.5-1.343 2.5-3s-1.12-3-2.5-3-2.5 1.343-2.5 3 1.12 3 2.5 3zm-27 0c1.38 0 2.5-1.343 2.5-3s-1.12-3-2.5-3-2.5 1.343-2.5 3 1.12 3 2.5 3zm-25 0c1.38 0 2.5-1.343 2.5-3s-1.12-3-2.5-3-2.5 1.343-2.5 3 1.12 3 2.5 3zm-27 0c1.38 0 2.5-1.343 2.5-3s-1.12-3-2.5-3-2.5 1.343-2.5 3 1.12 3 2.5 3zm-27 0c1.38 0 2.5-1.343 2.5-3s-1.12-3-2.5-3-2.5 1.343-2.5 3 1.12 3 2.5 3zm-27 0c1.38 0 2.5-1.343 2.5-3s-1.12-3-2.5-3-2.5 1.343-2.5 3 1.12 3 2.5 3zm-26 0c1.38 0 2.5-1.343 2.5-3s-1.12-3-2.5-3-2.5 1.343-2.5 3 1.12 3 2.5 3zm-26 0c1.38 0 2.5-1.343 2.5-3s-1.12-3-2.5-3-2.5 1.343-2.5 3 1.12 3 2.5 3zm-27 0c1.38 0 2.5-1.343 2.5-3s-1.12-3-2.5-3-2.5 1.343-2.5 3 1.12 3 2.5 3zm-27 0c1.38 0 2.5-1.343 2.5-3s-1.12-3-2.5-3-2.5 1.343-2.5 3 1.12 3 2.5 3zm-26 0c1.38 0 2.5-1.343 2.5-3s-1.12-3-2.5-3-2.5 1.343-2.5 3 1.12 3 2.5 3zm-27 0c1.38 0 2.5-1.343 2.5-3s-1.12-3-2.5-3-2.5 1.343-2.5 3 1.12 3 2.5 3zm-26 0c1.38 0 2.5-1.343 2.5-3s-1.12-3-2.5-3-2.5 1.343-2.5 3 1.12 3 2.5 3zm-27 0c1.38 0 2.5-1.343 2.5-3s-1.12-3-2.5-3-2.5 1.343-2.5 3 1.12 3 2.5 3zm-26 0c1.38 0 2.5-1.343 2.5-3s-1.12-3-2.5-3-2.5 1.343-2.5 3 1.12 3 2.5 3zm-27 0c1.38 0 2.5-1.343 2.5-3s-1.12-3-2.5-3-2.5 1.343-2.5 3 1.12 3 2.5 3zm-27 0c1.38 0 2.5-1.343 2.5-3s-1.12-3-2.5-3-2.5 1.343-2.5 3 1.12 3 2.5 3zm-26 0c1.38 0 2.5-1.343 2.5-3s-1.12-3-2.5-3-2.5 1.343-2.5 3 1.12 3 2.5 3zm-26 0c1.38 0 2.5-1.343 2.5-3s-1.12-3-2.5-3-2.5 1.343-2.5 3 1.12 3 2.5 3zm-27 0c1.38 0 2.5-1.343 2.5-3s-1.12-3-2.5-3-2.5 1.343-2.5 3 1.12 3 2.5 3zm-27 0c1.38 0 2.5-1.343 2.5-3s-1.12-3-2.5-3-2.5 1.343-2.5 3 1.12 3 2.5 3zm770-19c1.38 0 2.5-1.343 2.5-3s-1.12-3-2.5-3-2.5 1.343-2.5 3 1.12 3 2.5 3zm-27 0c1.38 0 2.5-1.343 2.5-3s-1.12-3-2.5-3-2.5 1.343-2.5 3 1.12 3 2.5 3zm-26 0c1.38 0 2.5-1.343 2.5-3s-1.12-3-2.5-3-2.5 1.343-2.5 3 1.12 3 2.5 3zm-26 0c1.38 0 2.5-1.343 2.5-3s-1.12-3-2.5-3-2.5 1.343-2.5 3 1.12 3 2.5 3zm-27 0c1.38 0 2.5-1.343 2.5-3s-1.12-3-2.5-3-2.5 1.343-2.5 3 1.12 3 2.5 3zm-27 0c1.38 0 2.5-1.343 2.5-3s-1.12-3-2.5-3-2.5 1.343-2.5 3 1.12 3 2.5 3zm-26 0c1.38 0 2.5-1.343 2.5-3s-1.12-3-2.5-3-2.5 1.343-2.5 3 1.12 3 2.5 3zm-26 0c1.38 0 2.5-1.343 2.5-3s-1.12-3-2.5-3-2.5 1.343-2.5 3 1.12 3 2.5 3zm-27 0c1.38 0 2.5-1.343 2.5-3s-1.12-3-2.5-3-2.5 1.343-2.5 3 1.12 3 2.5 3zm-27 0c1.38 0 2.5-1.343 2.5-3s-1.12-3-2.5-3-2.5 1.343-2.5 3 1.12 3 2.5 3zm-27 0c1.38 0 2.5-1.343 2.5-3s-1.12-3-2.5-3-2.5 1.343-2.5 3 1.12 3 2.5 3zm-25 0c1.38 0 2.5-1.343 2.5-3s-1.12-3-2.5-3-2.5 1.343-2.5 3 1.12 3 2.5 3zm-27 0c1.38 0 2.5-1.343 2.5-3s-1.12-3-2.5-3-2.5 1.343-2.5 3 1.12 3 2.5 3zm-27 0c1.38 0 2.5-1.343 2.5-3s-1.12-3-2.5-3-2.5 1.343-2.5 3 1.12 3 2.5 3zm-27 0c1.38 0 2.5-1.343 2.5-3s-1.12-3-2.5-3-2.5 1.343-2.5 3 1.12 3 2.5 3zm-26 0c1.38 0 2.5-1.343 2.5-3s-1.12-3-2.5-3-2.5 1.343-2.5 3 1.12 3 2.5 3zm-26 0c1.38 0 2.5-1.343 2.5-3s-1.12-3-2.5-3-2.5 1.343-2.5 3 1.12 3 2.5 3zm-27 0c1.38 0 2.5-1.343 2.5-3s-1.12-3-2.5-3-2.5 1.343-2.5 3 1.12 3 2.5 3zm-27 0c1.38 0 2.5-1.343 2.5-3s-1.12-3-2.5-3-2.5 1.343-2.5 3 1.12 3 2.5 3zm-26 0c1.38 0 2.5-1.343 2.5-3s-1.12-3-2.5-3-2.5 1.343-2.5 3 1.12 3 2.5 3zm-27 0c1.38 0 2.5-1.343 2.5-3s-1.12-3-2.5-3-2.5 1.343-2.5 3 1.12 3 2.5 3zm-26 0c1.38 0 2.5-1.343 2.5-3s-1.12-3-2.5-3-2.5 1.343-2.5 3 1.12 3 2.5 3zm-27 0c1.38 0 2.5-1.343 2.5-3s-1.12-3-2.5-3-2.5 1.343-2.5 3 1.12 3 2.5 3zm-26 0c1.38 0 2.5-1.343 2.5-3s-1.12-3-2.5-3-2.5 1.343-2.5 3 1.12 3 2.5 3zm-27 0c1.38 0 2.5-1.343 2.5-3s-1.12-3-2.5-3-2.5 1.343-2.5 3 1.12 3 2.5 3zm-27 0c1.38 0 2.5-1.343 2.5-3s-1.12-3-2.5-3-2.5 1.343-2.5 3 1.12 3 2.5 3zm-26 0c1.38 0 2.5-1.343 2.5-3s-1.12-3-2.5-3-2.5 1.343-2.5 3 1.12 3 2.5 3zm-26 0c1.38 0 2.5-1.343 2.5-3s-1.12-3-2.5-3-2.5 1.343-2.5 3 1.12 3 2.5 3zm-27 0c1.38 0 2.5-1.343 2.5-3s-1.12-3-2.5-3-2.5 1.343-2.5 3 1.12 3 2.5 3zm-27 0c1.38 0 2.5-1.343 2.5-3s-1.12-3-2.5-3-2.5 1.343-2.5 3 1.12 3 2.5 3zm770-18c1.38 0 2.5-1.343 2.5-3s-1.12-3-2.5-3-2.5 1.343-2.5 3 1.12 3 2.5 3zm-27 0c1.38 0 2.5-1.343 2.5-3s-1.12-3-2.5-3-2.5 1.343-2.5 3 1.12 3 2.5 3zm-26 0c1.38 0 2.5-1.343 2.5-3s-1.12-3-2.5-3-2.5 1.343-2.5 3 1.12 3 2.5 3zm-26 0c1.38 0 2.5-1.343 2.5-3s-1.12-3-2.5-3-2.5 1.343-2.5 3 1.12 3 2.5 3zm-27 0c1.38 0 2.5-1.343 2.5-3s-1.12-3-2.5-3-2.5 1.343-2.5 3 1.12 3 2.5 3zm-27 0c1.38 0 2.5-1.343 2.5-3s-1.12-3-2.5-3-2.5 1.343-2.5 3 1.12 3 2.5 3zm-26 0c1.38 0 2.5-1.343 2.5-3s-1.12-3-2.5-3-2.5 1.343-2.5 3 1.12 3 2.5 3zm-26 0c1.38 0 2.5-1.343 2.5-3s-1.12-3-2.5-3-2.5 1.343-2.5 3 1.12 3 2.5 3zm-27 0c1.38 0 2.5-1.343 2.5-3s-1.12-3-2.5-3-2.5 1.343-2.5 3 1.12 3 2.5 3zm-27 0c1.38 0 2.5-1.343 2.5-3s-1.12-3-2.5-3-2.5 1.343-2.5 3 1.12 3 2.5 3zm-27 0c1.38 0 2.5-1.343 2.5-3s-1.12-3-2.5-3-2.5 1.343-2.5 3 1.12 3 2.5 3zm-25 0c1.38 0 2.5-1.343 2.5-3s-1.12-3-2.5-3-2.5 1.343-2.5 3 1.12 3 2.5 3zm-27 0c1.38 0 2.5-1.343 2.5-3s-1.12-3-2.5-3-2.5 1.343-2.5 3 1.12 3 2.5 3zm-27 0c1.38 0 2.5-1.343 2.5-3s-1.12-3-2.5-3-2.5 1.343-2.5 3 1.12 3 2.5 3zm-27 0c1.38 0 2.5-1.343 2.5-3s-1.12-3-2.5-3-2.5 1.343-2.5 3 1.12 3 2.5 3zm-26 0c1.38 0 2.5-1.343 2.5-3s-1.12-3-2.5-3-2.5 1.343-2.5 3 1.12 3 2.5 3zm-26 0c1.38 0 2.5-1.343 2.5-3s-1.12-3-2.5-3-2.5 1.343-2.5 3 1.12 3 2.5 3zm-27 0c1.38 0 2.5-1.343 2.5-3s-1.12-3-2.5-3-2.5 1.343-2.5 3 1.12 3 2.5 3zm-27 0c1.38 0 2.5-1.343 2.5-3s-1.12-3-2.5-3-2.5 1.343-2.5 3 1.12 3 2.5 3zm-26 0c1.38 0 2.5-1.343 2.5-3s-1.12-3-2.5-3-2.5 1.343-2.5 3 1.12 3 2.5 3zm-27 0c1.38 0 2.5-1.343 2.5-3s-1.12-3-2.5-3-2.5 1.343-2.5 3 1.12 3 2.5 3zm-26 0c1.38 0 2.5-1.343 2.5-3s-1.12-3-2.5-3-2.5 1.343-2.5 3 1.12 3 2.5 3zm-27 0c1.38 0 2.5-1.343 2.5-3s-1.12-3-2.5-3-2.5 1.343-2.5 3 1.12 3 2.5 3zm-26 0c1.38 0 2.5-1.343 2.5-3s-1.12-3-2.5-3-2.5 1.343-2.5 3 1.12 3 2.5 3zm-27 0c1.38 0 2.5-1.343 2.5-3s-1.12-3-2.5-3-2.5 1.343-2.5 3 1.12 3 2.5 3zm-27 0c1.38 0 2.5-1.343 2.5-3s-1.12-3-2.5-3-2.5 1.343-2.5 3 1.12 3 2.5 3zm-26 0c1.38 0 2.5-1.343 2.5-3s-1.12-3-2.5-3-2.5 1.343-2.5 3 1.12 3 2.5 3zm-26 0c1.38 0 2.5-1.343 2.5-3s-1.12-3-2.5-3-2.5 1.343-2.5 3 1.12 3 2.5 3zm-27 0c1.38 0 2.5-1.343 2.5-3s-1.12-3-2.5-3-2.5 1.343-2.5 3 1.12 3 2.5 3zm-27 0c1.38 0 2.5-1.343 2.5-3s-1.12-3-2.5-3-2.5 1.343-2.5 3 1.12 3 2.5 3zm770-19c1.38 0 2.5-1.343 2.5-3s-1.12-3-2.5-3-2.5 1.343-2.5 3 1.12 3 2.5 3zm-27 0c1.38 0 2.5-1.343 2.5-3s-1.12-3-2.5-3-2.5 1.343-2.5 3 1.12 3 2.5 3zm-26 0c1.38 0 2.5-1.343 2.5-3s-1.12-3-2.5-3-2.5 1.343-2.5 3 1.12 3 2.5 3zm-26 0c1.38 0 2.5-1.343 2.5-3s-1.12-3-2.5-3-2.5 1.343-2.5 3 1.12 3 2.5 3zm-27 0c1.38 0 2.5-1.343 2.5-3s-1.12-3-2.5-3-2.5 1.343-2.5 3 1.12 3 2.5 3zm-27 0c1.38 0 2.5-1.343 2.5-3s-1.12-3-2.5-3-2.5 1.343-2.5 3 1.12 3 2.5 3zm-26 0c1.38 0 2.5-1.343 2.5-3s-1.12-3-2.5-3-2.5 1.343-2.5 3 1.12 3 2.5 3zm-26 0c1.38 0 2.5-1.343 2.5-3s-1.12-3-2.5-3-2.5 1.343-2.5 3 1.12 3 2.5 3zm-27 0c1.38 0 2.5-1.343 2.5-3s-1.12-3-2.5-3-2.5 1.343-2.5 3 1.12 3 2.5 3zm-27 0c1.38 0 2.5-1.343 2.5-3s-1.12-3-2.5-3-2.5 1.343-2.5 3 1.12 3 2.5 3zm-27 0c1.38 0 2.5-1.343 2.5-3s-1.12-3-2.5-3-2.5 1.343-2.5 3 1.12 3 2.5 3zm-25 0c1.38 0 2.5-1.343 2.5-3s-1.12-3-2.5-3-2.5 1.343-2.5 3 1.12 3 2.5 3zm-27 0c1.38 0 2.5-1.343 2.5-3s-1.12-3-2.5-3-2.5 1.343-2.5 3 1.12 3 2.5 3zm-27 0c1.38 0 2.5-1.343 2.5-3s-1.12-3-2.5-3-2.5 1.343-2.5 3 1.12 3 2.5 3zm-27 0c1.38 0 2.5-1.343 2.5-3s-1.12-3-2.5-3-2.5 1.343-2.5 3 1.12 3 2.5 3zm-26 0c1.38 0 2.5-1.343 2.5-3s-1.12-3-2.5-3-2.5 1.343-2.5 3 1.12 3 2.5 3zm-26 0c1.38 0 2.5-1.343 2.5-3s-1.12-3-2.5-3-2.5 1.343-2.5 3 1.12 3 2.5 3zm-27 0c1.38 0 2.5-1.343 2.5-3s-1.12-3-2.5-3-2.5 1.343-2.5 3 1.12 3 2.5 3zm-27 0c1.38 0 2.5-1.343 2.5-3s-1.12-3-2.5-3-2.5 1.343-2.5 3 1.12 3 2.5 3zm-26 0c1.38 0 2.5-1.343 2.5-3s-1.12-3-2.5-3-2.5 1.343-2.5 3 1.12 3 2.5 3zm-27 0c1.38 0 2.5-1.343 2.5-3s-1.12-3-2.5-3-2.5 1.343-2.5 3 1.12 3 2.5 3zm-26 0c1.38 0 2.5-1.343 2.5-3s-1.12-3-2.5-3-2.5 1.343-2.5 3 1.12 3 2.5 3zm-27 0c1.38 0 2.5-1.343 2.5-3s-1.12-3-2.5-3-2.5 1.343-2.5 3 1.12 3 2.5 3zm-26 0c1.38 0 2.5-1.343 2.5-3s-1.12-3-2.5-3-2.5 1.343-2.5 3 1.12 3 2.5 3zm-27 0c1.38 0 2.5-1.343 2.5-3s-1.12-3-2.5-3-2.5 1.343-2.5 3 1.12 3 2.5 3zm-27 0c1.38 0 2.5-1.343 2.5-3s-1.12-3-2.5-3-2.5 1.343-2.5 3 1.12 3 2.5 3zm-26 0c1.38 0 2.5-1.343 2.5-3s-1.12-3-2.5-3-2.5 1.343-2.5 3 1.12 3 2.5 3zm-26 0c1.38 0 2.5-1.343 2.5-3s-1.12-3-2.5-3-2.5 1.343-2.5 3 1.12 3 2.5 3zm-27 0c1.38 0 2.5-1.343 2.5-3s-1.12-3-2.5-3-2.5 1.343-2.5 3 1.12 3 2.5 3zm-27 0c1.38 0 2.5-1.343 2.5-3s-1.12-3-2.5-3-2.5 1.343-2.5 3 1.12 3 2.5 3zm770-18c1.38 0 2.5-1.343 2.5-3s-1.12-3-2.5-3-2.5 1.343-2.5 3 1.12 3 2.5 3zm-27 0c1.38 0 2.5-1.343 2.5-3s-1.12-3-2.5-3-2.5 1.343-2.5 3 1.12 3 2.5 3zm-26 0c1.38 0 2.5-1.343 2.5-3s-1.12-3-2.5-3-2.5 1.343-2.5 3 1.12 3 2.5 3zm-26 0c1.38 0 2.5-1.343 2.5-3s-1.12-3-2.5-3-2.5 1.343-2.5 3 1.12 3 2.5 3zm-27 0c1.38 0 2.5-1.343 2.5-3s-1.12-3-2.5-3-2.5 1.343-2.5 3 1.12 3 2.5 3zm-27 0c1.38 0 2.5-1.343 2.5-3s-1.12-3-2.5-3-2.5 1.343-2.5 3 1.12 3 2.5 3zm-26 0c1.38 0 2.5-1.343 2.5-3s-1.12-3-2.5-3-2.5 1.343-2.5 3 1.12 3 2.5 3zm-26 0c1.38 0 2.5-1.343 2.5-3s-1.12-3-2.5-3-2.5 1.343-2.5 3 1.12 3 2.5 3zm-27 0c1.38 0 2.5-1.343 2.5-3s-1.12-3-2.5-3-2.5 1.343-2.5 3 1.12 3 2.5 3zm-27 0c1.38 0 2.5-1.343 2.5-3s-1.12-3-2.5-3-2.5 1.343-2.5 3 1.12 3 2.5 3zm-27 0c1.38 0 2.5-1.343 2.5-3s-1.12-3-2.5-3-2.5 1.343-2.5 3 1.12 3 2.5 3zm-25 0c1.38 0 2.5-1.343 2.5-3s-1.12-3-2.5-3-2.5 1.343-2.5 3 1.12 3 2.5 3zm-27 0c1.38 0 2.5-1.343 2.5-3s-1.12-3-2.5-3-2.5 1.343-2.5 3 1.12 3 2.5 3zm-27 0c1.38 0 2.5-1.343 2.5-3s-1.12-3-2.5-3-2.5 1.343-2.5 3 1.12 3 2.5 3zm-27 0c1.38 0 2.5-1.343 2.5-3s-1.12-3-2.5-3-2.5 1.343-2.5 3 1.12 3 2.5 3zm-26 0c1.38 0 2.5-1.343 2.5-3s-1.12-3-2.5-3-2.5 1.343-2.5 3 1.12 3 2.5 3zm-26 0c1.38 0 2.5-1.343 2.5-3s-1.12-3-2.5-3-2.5 1.343-2.5 3 1.12 3 2.5 3zm-27 0c1.38 0 2.5-1.343 2.5-3s-1.12-3-2.5-3-2.5 1.343-2.5 3 1.12 3 2.5 3zm-27 0c1.38 0 2.5-1.343 2.5-3s-1.12-3-2.5-3-2.5 1.343-2.5 3 1.12 3 2.5 3zm-26 0c1.38 0 2.5-1.343 2.5-3s-1.12-3-2.5-3-2.5 1.343-2.5 3 1.12 3 2.5 3zm-27 0c1.38 0 2.5-1.343 2.5-3s-1.12-3-2.5-3-2.5 1.343-2.5 3 1.12 3 2.5 3zm-26 0c1.38 0 2.5-1.343 2.5-3s-1.12-3-2.5-3-2.5 1.343-2.5 3 1.12 3 2.5 3zm-27 0c1.38 0 2.5-1.343 2.5-3s-1.12-3-2.5-3-2.5 1.343-2.5 3 1.12 3 2.5 3zm-26 0c1.38 0 2.5-1.343 2.5-3s-1.12-3-2.5-3-2.5 1.343-2.5 3 1.12 3 2.5 3zm-27 0c1.38 0 2.5-1.343 2.5-3s-1.12-3-2.5-3-2.5 1.343-2.5 3 1.12 3 2.5 3zm-27 0c1.38 0 2.5-1.343 2.5-3s-1.12-3-2.5-3-2.5 1.343-2.5 3 1.12 3 2.5 3zm-26 0c1.38 0 2.5-1.343 2.5-3s-1.12-3-2.5-3-2.5 1.343-2.5 3 1.12 3 2.5 3zm-26 0c1.38 0 2.5-1.343 2.5-3s-1.12-3-2.5-3-2.5 1.343-2.5 3 1.12 3 2.5 3zm-27 0c1.38 0 2.5-1.343 2.5-3s-1.12-3-2.5-3-2.5 1.343-2.5 3 1.12 3 2.5 3zm-27 0c1.38 0 2.5-1.343 2.5-3s-1.12-3-2.5-3-2.5 1.343-2.5 3 1.12 3 2.5 3zm770-19c1.38 0 2.5-1.343 2.5-3s-1.12-3-2.5-3-2.5 1.343-2.5 3 1.12 3 2.5 3zm-27 0c1.38 0 2.5-1.343 2.5-3s-1.12-3-2.5-3-2.5 1.343-2.5 3 1.12 3 2.5 3zm-26 0c1.38 0 2.5-1.343 2.5-3s-1.12-3-2.5-3-2.5 1.343-2.5 3 1.12 3 2.5 3zm-26 0c1.38 0 2.5-1.343 2.5-3s-1.12-3-2.5-3-2.5 1.343-2.5 3 1.12 3 2.5 3zm-27 0c1.38 0 2.5-1.343 2.5-3s-1.12-3-2.5-3-2.5 1.343-2.5 3 1.12 3 2.5 3zm-27 0c1.38 0 2.5-1.343 2.5-3s-1.12-3-2.5-3-2.5 1.343-2.5 3 1.12 3 2.5 3zm-26 0c1.38 0 2.5-1.343 2.5-3s-1.12-3-2.5-3-2.5 1.343-2.5 3 1.12 3 2.5 3zm-26 0c1.38 0 2.5-1.343 2.5-3s-1.12-3-2.5-3-2.5 1.343-2.5 3 1.12 3 2.5 3zm-27 0c1.38 0 2.5-1.343 2.5-3s-1.12-3-2.5-3-2.5 1.343-2.5 3 1.12 3 2.5 3zm-27 0c1.38 0 2.5-1.343 2.5-3s-1.12-3-2.5-3-2.5 1.343-2.5 3 1.12 3 2.5 3zm-27 0c1.38 0 2.5-1.343 2.5-3s-1.12-3-2.5-3-2.5 1.343-2.5 3 1.12 3 2.5 3zm-25 0c1.38 0 2.5-1.343 2.5-3s-1.12-3-2.5-3-2.5 1.343-2.5 3 1.12 3 2.5 3zm-27 0c1.38 0 2.5-1.343 2.5-3s-1.12-3-2.5-3-2.5 1.343-2.5 3 1.12 3 2.5 3zm-27 0c1.38 0 2.5-1.343 2.5-3s-1.12-3-2.5-3-2.5 1.343-2.5 3 1.12 3 2.5 3zm-27 0c1.38 0 2.5-1.343 2.5-3s-1.12-3-2.5-3-2.5 1.343-2.5 3 1.12 3 2.5 3zm-26 0c1.38 0 2.5-1.343 2.5-3s-1.12-3-2.5-3-2.5 1.343-2.5 3 1.12 3 2.5 3zm-26 0c1.38 0 2.5-1.343 2.5-3s-1.12-3-2.5-3-2.5 1.343-2.5 3 1.12 3 2.5 3zm-27 0c1.38 0 2.5-1.343 2.5-3s-1.12-3-2.5-3-2.5 1.343-2.5 3 1.12 3 2.5 3zm-27 0c1.38 0 2.5-1.343 2.5-3s-1.12-3-2.5-3-2.5 1.343-2.5 3 1.12 3 2.5 3zm-26 0c1.38 0 2.5-1.343 2.5-3s-1.12-3-2.5-3-2.5 1.343-2.5 3 1.12 3 2.5 3zm-27 0c1.38 0 2.5-1.343 2.5-3s-1.12-3-2.5-3-2.5 1.343-2.5 3 1.12 3 2.5 3zm-26 0c1.38 0 2.5-1.343 2.5-3s-1.12-3-2.5-3-2.5 1.343-2.5 3 1.12 3 2.5 3zm-27 0c1.38 0 2.5-1.343 2.5-3s-1.12-3-2.5-3-2.5 1.343-2.5 3 1.12 3 2.5 3zm-26 0c1.38 0 2.5-1.343 2.5-3s-1.12-3-2.5-3-2.5 1.343-2.5 3 1.12 3 2.5 3zm-27 0c1.38 0 2.5-1.343 2.5-3s-1.12-3-2.5-3-2.5 1.343-2.5 3 1.12 3 2.5 3zm-27 0c1.38 0 2.5-1.343 2.5-3s-1.12-3-2.5-3-2.5 1.343-2.5 3 1.12 3 2.5 3zm-26 0c1.38 0 2.5-1.343 2.5-3s-1.12-3-2.5-3-2.5 1.343-2.5 3 1.12 3 2.5 3zm-26 0c1.38 0 2.5-1.343 2.5-3s-1.12-3-2.5-3-2.5 1.343-2.5 3 1.12 3 2.5 3zm-27 0c1.38 0 2.5-1.343 2.5-3s-1.12-3-2.5-3-2.5 1.343-2.5 3 1.12 3 2.5 3zm-27 0c1.38 0 2.5-1.343 2.5-3s-1.12-3-2.5-3-2.5 1.343-2.5 3 1.12 3 2.5 3zm770-19c1.38 0 2.5-1.343 2.5-3s-1.12-3-2.5-3-2.5 1.343-2.5 3 1.12 3 2.5 3zm-27 0c1.38 0 2.5-1.343 2.5-3s-1.12-3-2.5-3-2.5 1.343-2.5 3 1.12 3 2.5 3zm-26 0c1.38 0 2.5-1.343 2.5-3s-1.12-3-2.5-3-2.5 1.343-2.5 3 1.12 3 2.5 3zm-26 0c1.38 0 2.5-1.343 2.5-3s-1.12-3-2.5-3-2.5 1.343-2.5 3 1.12 3 2.5 3zm-27 0c1.38 0 2.5-1.343 2.5-3s-1.12-3-2.5-3-2.5 1.343-2.5 3 1.12 3 2.5 3zm-27 0c1.38 0 2.5-1.343 2.5-3s-1.12-3-2.5-3-2.5 1.343-2.5 3 1.12 3 2.5 3zm-26 0c1.38 0 2.5-1.343 2.5-3s-1.12-3-2.5-3-2.5 1.343-2.5 3 1.12 3 2.5 3zm-26 0c1.38 0 2.5-1.343 2.5-3s-1.12-3-2.5-3-2.5 1.343-2.5 3 1.12 3 2.5 3zm-27 0c1.38 0 2.5-1.343 2.5-3s-1.12-3-2.5-3-2.5 1.343-2.5 3 1.12 3 2.5 3zm-27 0c1.38 0 2.5-1.343 2.5-3s-1.12-3-2.5-3-2.5 1.343-2.5 3 1.12 3 2.5 3zm-27 0c1.38 0 2.5-1.343 2.5-3s-1.12-3-2.5-3-2.5 1.343-2.5 3 1.12 3 2.5 3zm-25 0c1.38 0 2.5-1.343 2.5-3s-1.12-3-2.5-3-2.5 1.343-2.5 3 1.12 3 2.5 3zm-27 0c1.38 0 2.5-1.343 2.5-3s-1.12-3-2.5-3-2.5 1.343-2.5 3 1.12 3 2.5 3zm-27 0c1.38 0 2.5-1.343 2.5-3s-1.12-3-2.5-3-2.5 1.343-2.5 3 1.12 3 2.5 3zm-27 0c1.38 0 2.5-1.343 2.5-3s-1.12-3-2.5-3-2.5 1.343-2.5 3 1.12 3 2.5 3zm-26 0c1.38 0 2.5-1.343 2.5-3s-1.12-3-2.5-3-2.5 1.343-2.5 3 1.12 3 2.5 3zm-26 0c1.38 0 2.5-1.343 2.5-3s-1.12-3-2.5-3-2.5 1.343-2.5 3 1.12 3 2.5 3zm-27 0c1.38 0 2.5-1.343 2.5-3s-1.12-3-2.5-3-2.5 1.343-2.5 3 1.12 3 2.5 3zm-27 0c1.38 0 2.5-1.343 2.5-3s-1.12-3-2.5-3-2.5 1.343-2.5 3 1.12 3 2.5 3zm-26 0c1.38 0 2.5-1.343 2.5-3s-1.12-3-2.5-3-2.5 1.343-2.5 3 1.12 3 2.5 3zm-27 0c1.38 0 2.5-1.343 2.5-3s-1.12-3-2.5-3-2.5 1.343-2.5 3 1.12 3 2.5 3zm-26 0c1.38 0 2.5-1.343 2.5-3s-1.12-3-2.5-3-2.5 1.343-2.5 3 1.12 3 2.5 3zm-27 0c1.38 0 2.5-1.343 2.5-3s-1.12-3-2.5-3-2.5 1.343-2.5 3 1.12 3 2.5 3zm-26 0c1.38 0 2.5-1.343 2.5-3s-1.12-3-2.5-3-2.5 1.343-2.5 3 1.12 3 2.5 3zm-27 0c1.38 0 2.5-1.343 2.5-3s-1.12-3-2.5-3-2.5 1.343-2.5 3 1.12 3 2.5 3zm-27 0c1.38 0 2.5-1.343 2.5-3s-1.12-3-2.5-3-2.5 1.343-2.5 3 1.12 3 2.5 3zm-26 0c1.38 0 2.5-1.343 2.5-3s-1.12-3-2.5-3-2.5 1.343-2.5 3 1.12 3 2.5 3zm-26 0c1.38 0 2.5-1.343 2.5-3s-1.12-3-2.5-3-2.5 1.343-2.5 3 1.12 3 2.5 3zm-27 0c1.38 0 2.5-1.343 2.5-3s-1.12-3-2.5-3-2.5 1.343-2.5 3 1.12 3 2.5 3zm-27 0c1.38 0 2.5-1.343 2.5-3s-1.12-3-2.5-3-2.5 1.343-2.5 3 1.12 3 2.5 3zm770-18c1.38 0 2.5-1.343 2.5-3s-1.12-3-2.5-3-2.5 1.343-2.5 3 1.12 3 2.5 3zm-27 0c1.38 0 2.5-1.343 2.5-3s-1.12-3-2.5-3-2.5 1.343-2.5 3 1.12 3 2.5 3zm-26 0c1.38 0 2.5-1.343 2.5-3s-1.12-3-2.5-3-2.5 1.343-2.5 3 1.12 3 2.5 3zm-26 0c1.38 0 2.5-1.343 2.5-3s-1.12-3-2.5-3-2.5 1.343-2.5 3 1.12 3 2.5 3zm-27 0c1.38 0 2.5-1.343 2.5-3s-1.12-3-2.5-3-2.5 1.343-2.5 3 1.12 3 2.5 3zm-27 0c1.38 0 2.5-1.343 2.5-3s-1.12-3-2.5-3-2.5 1.343-2.5 3 1.12 3 2.5 3zm-26 0c1.38 0 2.5-1.343 2.5-3s-1.12-3-2.5-3-2.5 1.343-2.5 3 1.12 3 2.5 3zm-26 0c1.38 0 2.5-1.343 2.5-3s-1.12-3-2.5-3-2.5 1.343-2.5 3 1.12 3 2.5 3zm-27 0c1.38 0 2.5-1.343 2.5-3s-1.12-3-2.5-3-2.5 1.343-2.5 3 1.12 3 2.5 3zm-27 0c1.38 0 2.5-1.343 2.5-3s-1.12-3-2.5-3-2.5 1.343-2.5 3 1.12 3 2.5 3zm-27 0c1.38 0 2.5-1.343 2.5-3s-1.12-3-2.5-3-2.5 1.343-2.5 3 1.12 3 2.5 3zm-25 0c1.38 0 2.5-1.343 2.5-3s-1.12-3-2.5-3-2.5 1.343-2.5 3 1.12 3 2.5 3zm-27 0c1.38 0 2.5-1.343 2.5-3s-1.12-3-2.5-3-2.5 1.343-2.5 3 1.12 3 2.5 3zm-27 0c1.38 0 2.5-1.343 2.5-3s-1.12-3-2.5-3-2.5 1.343-2.5 3 1.12 3 2.5 3zm-27 0c1.38 0 2.5-1.343 2.5-3s-1.12-3-2.5-3-2.5 1.343-2.5 3 1.12 3 2.5 3zm-26 0c1.38 0 2.5-1.343 2.5-3s-1.12-3-2.5-3-2.5 1.343-2.5 3 1.12 3 2.5 3zm-26 0c1.38 0 2.5-1.343 2.5-3s-1.12-3-2.5-3-2.5 1.343-2.5 3 1.12 3 2.5 3zm-27 0c1.38 0 2.5-1.343 2.5-3s-1.12-3-2.5-3-2.5 1.343-2.5 3 1.12 3 2.5 3zm-27 0c1.38 0 2.5-1.343 2.5-3s-1.12-3-2.5-3-2.5 1.343-2.5 3 1.12 3 2.5 3zm-26 0c1.38 0 2.5-1.343 2.5-3s-1.12-3-2.5-3-2.5 1.343-2.5 3 1.12 3 2.5 3zm-27 0c1.38 0 2.5-1.343 2.5-3s-1.12-3-2.5-3-2.5 1.343-2.5 3 1.12 3 2.5 3zm-26 0c1.38 0 2.5-1.343 2.5-3s-1.12-3-2.5-3-2.5 1.343-2.5 3 1.12 3 2.5 3zm-27 0c1.38 0 2.5-1.343 2.5-3s-1.12-3-2.5-3-2.5 1.343-2.5 3 1.12 3 2.5 3zm-26 0c1.38 0 2.5-1.343 2.5-3s-1.12-3-2.5-3-2.5 1.343-2.5 3 1.12 3 2.5 3zm-27 0c1.38 0 2.5-1.343 2.5-3s-1.12-3-2.5-3-2.5 1.343-2.5 3 1.12 3 2.5 3zm-27 0c1.38 0 2.5-1.343 2.5-3s-1.12-3-2.5-3-2.5 1.343-2.5 3 1.12 3 2.5 3zm-26 0c1.38 0 2.5-1.343 2.5-3s-1.12-3-2.5-3-2.5 1.343-2.5 3 1.12 3 2.5 3zm-26 0c1.38 0 2.5-1.343 2.5-3s-1.12-3-2.5-3-2.5 1.343-2.5 3 1.12 3 2.5 3zm-27 0c1.38 0 2.5-1.343 2.5-3s-1.12-3-2.5-3-2.5 1.343-2.5 3 1.12 3 2.5 3zm-27 0c1.38 0 2.5-1.343 2.5-3s-1.12-3-2.5-3-2.5 1.343-2.5 3 1.12 3 2.5 3zm770-19c1.38 0 2.5-1.343 2.5-3s-1.12-3-2.5-3-2.5 1.343-2.5 3 1.12 3 2.5 3zm-27 0c1.38 0 2.5-1.343 2.5-3s-1.12-3-2.5-3-2.5 1.343-2.5 3 1.12 3 2.5 3zm-26 0c1.38 0 2.5-1.343 2.5-3s-1.12-3-2.5-3-2.5 1.343-2.5 3 1.12 3 2.5 3zm-26 0c1.38 0 2.5-1.343 2.5-3s-1.12-3-2.5-3-2.5 1.343-2.5 3 1.12 3 2.5 3zm-27 0c1.38 0 2.5-1.343 2.5-3s-1.12-3-2.5-3-2.5 1.343-2.5 3 1.12 3 2.5 3zm-27 0c1.38 0 2.5-1.343 2.5-3s-1.12-3-2.5-3-2.5 1.343-2.5 3 1.12 3 2.5 3zm-26 0c1.38 0 2.5-1.343 2.5-3s-1.12-3-2.5-3-2.5 1.343-2.5 3 1.12 3 2.5 3zm-26 0c1.38 0 2.5-1.343 2.5-3s-1.12-3-2.5-3-2.5 1.343-2.5 3 1.12 3 2.5 3zm-27 0c1.38 0 2.5-1.343 2.5-3s-1.12-3-2.5-3-2.5 1.343-2.5 3 1.12 3 2.5 3zm-27 0c1.38 0 2.5-1.343 2.5-3s-1.12-3-2.5-3-2.5 1.343-2.5 3 1.12 3 2.5 3zm-27 0c1.38 0 2.5-1.343 2.5-3s-1.12-3-2.5-3-2.5 1.343-2.5 3 1.12 3 2.5 3zm-25 0c1.38 0 2.5-1.343 2.5-3s-1.12-3-2.5-3-2.5 1.343-2.5 3 1.12 3 2.5 3zm-27 0c1.38 0 2.5-1.343 2.5-3s-1.12-3-2.5-3-2.5 1.343-2.5 3 1.12 3 2.5 3zm-27 0c1.38 0 2.5-1.343 2.5-3s-1.12-3-2.5-3-2.5 1.343-2.5 3 1.12 3 2.5 3zm-27 0c1.38 0 2.5-1.343 2.5-3s-1.12-3-2.5-3-2.5 1.343-2.5 3 1.12 3 2.5 3zm-26 0c1.38 0 2.5-1.343 2.5-3s-1.12-3-2.5-3-2.5 1.343-2.5 3 1.12 3 2.5 3zm-26 0c1.38 0 2.5-1.343 2.5-3s-1.12-3-2.5-3-2.5 1.343-2.5 3 1.12 3 2.5 3zm-27 0c1.38 0 2.5-1.343 2.5-3s-1.12-3-2.5-3-2.5 1.343-2.5 3 1.12 3 2.5 3zm-27 0c1.38 0 2.5-1.343 2.5-3s-1.12-3-2.5-3-2.5 1.343-2.5 3 1.12 3 2.5 3zm-26 0c1.38 0 2.5-1.343 2.5-3s-1.12-3-2.5-3-2.5 1.343-2.5 3 1.12 3 2.5 3zm-27 0c1.38 0 2.5-1.343 2.5-3s-1.12-3-2.5-3-2.5 1.343-2.5 3 1.12 3 2.5 3zm-26 0c1.38 0 2.5-1.343 2.5-3s-1.12-3-2.5-3-2.5 1.343-2.5 3 1.12 3 2.5 3zm-27 0c1.38 0 2.5-1.343 2.5-3s-1.12-3-2.5-3-2.5 1.343-2.5 3 1.12 3 2.5 3zm-26 0c1.38 0 2.5-1.343 2.5-3s-1.12-3-2.5-3-2.5 1.343-2.5 3 1.12 3 2.5 3zm-27 0c1.38 0 2.5-1.343 2.5-3s-1.12-3-2.5-3-2.5 1.343-2.5 3 1.12 3 2.5 3zm-27 0c1.38 0 2.5-1.343 2.5-3s-1.12-3-2.5-3-2.5 1.343-2.5 3 1.12 3 2.5 3zm-26 0c1.38 0 2.5-1.343 2.5-3s-1.12-3-2.5-3-2.5 1.343-2.5 3 1.12 3 2.5 3zm-26 0c1.38 0 2.5-1.343 2.5-3s-1.12-3-2.5-3-2.5 1.343-2.5 3 1.12 3 2.5 3zm-27 0c1.38 0 2.5-1.343 2.5-3s-1.12-3-2.5-3-2.5 1.343-2.5 3 1.12 3 2.5 3zm-27 0c1.38 0 2.5-1.343 2.5-3s-1.12-3-2.5-3-2.5 1.343-2.5 3 1.12 3 2.5 3zm770-19c1.38 0 2.5-1.343 2.5-3s-1.12-3-2.5-3-2.5 1.343-2.5 3 1.12 3 2.5 3zm-27 0c1.38 0 2.5-1.343 2.5-3s-1.12-3-2.5-3-2.5 1.343-2.5 3 1.12 3 2.5 3zm-26 0c1.38 0 2.5-1.343 2.5-3s-1.12-3-2.5-3-2.5 1.343-2.5 3 1.12 3 2.5 3zm-26 0c1.38 0 2.5-1.343 2.5-3s-1.12-3-2.5-3-2.5 1.343-2.5 3 1.12 3 2.5 3zm-27 0c1.38 0 2.5-1.343 2.5-3s-1.12-3-2.5-3-2.5 1.343-2.5 3 1.12 3 2.5 3zm-27 0c1.38 0 2.5-1.343 2.5-3s-1.12-3-2.5-3-2.5 1.343-2.5 3 1.12 3 2.5 3zm-26 0c1.38 0 2.5-1.343 2.5-3s-1.12-3-2.5-3-2.5 1.343-2.5 3 1.12 3 2.5 3zm-26 0c1.38 0 2.5-1.343 2.5-3s-1.12-3-2.5-3-2.5 1.343-2.5 3 1.12 3 2.5 3zm-27 0c1.38 0 2.5-1.343 2.5-3s-1.12-3-2.5-3-2.5 1.343-2.5 3 1.12 3 2.5 3zm-27 0c1.38 0 2.5-1.343 2.5-3s-1.12-3-2.5-3-2.5 1.343-2.5 3 1.12 3 2.5 3zm-27 0c1.38 0 2.5-1.343 2.5-3s-1.12-3-2.5-3-2.5 1.343-2.5 3 1.12 3 2.5 3zm-25 0c1.38 0 2.5-1.343 2.5-3s-1.12-3-2.5-3-2.5 1.343-2.5 3 1.12 3 2.5 3zm-27 0c1.38 0 2.5-1.343 2.5-3s-1.12-3-2.5-3-2.5 1.343-2.5 3 1.12 3 2.5 3zm-27 0c1.38 0 2.5-1.343 2.5-3s-1.12-3-2.5-3-2.5 1.343-2.5 3 1.12 3 2.5 3zm-27 0c1.38 0 2.5-1.343 2.5-3s-1.12-3-2.5-3-2.5 1.343-2.5 3 1.12 3 2.5 3zm-26 0c1.38 0 2.5-1.343 2.5-3s-1.12-3-2.5-3-2.5 1.343-2.5 3 1.12 3 2.5 3zm-26 0c1.38 0 2.5-1.343 2.5-3s-1.12-3-2.5-3-2.5 1.343-2.5 3 1.12 3 2.5 3zm-27 0c1.38 0 2.5-1.343 2.5-3s-1.12-3-2.5-3-2.5 1.343-2.5 3 1.12 3 2.5 3zm-27 0c1.38 0 2.5-1.343 2.5-3s-1.12-3-2.5-3-2.5 1.343-2.5 3 1.12 3 2.5 3zm-26 0c1.38 0 2.5-1.343 2.5-3s-1.12-3-2.5-3-2.5 1.343-2.5 3 1.12 3 2.5 3zm-27 0c1.38 0 2.5-1.343 2.5-3s-1.12-3-2.5-3-2.5 1.343-2.5 3 1.12 3 2.5 3zm-26 0c1.38 0 2.5-1.343 2.5-3s-1.12-3-2.5-3-2.5 1.343-2.5 3 1.12 3 2.5 3zm-27 0c1.38 0 2.5-1.343 2.5-3s-1.12-3-2.5-3-2.5 1.343-2.5 3 1.12 3 2.5 3zm-26 0c1.38 0 2.5-1.343 2.5-3s-1.12-3-2.5-3-2.5 1.343-2.5 3 1.12 3 2.5 3zm-27 0c1.38 0 2.5-1.343 2.5-3s-1.12-3-2.5-3-2.5 1.343-2.5 3 1.12 3 2.5 3zm-27 0c1.38 0 2.5-1.343 2.5-3s-1.12-3-2.5-3-2.5 1.343-2.5 3 1.12 3 2.5 3zm-26 0c1.38 0 2.5-1.343 2.5-3s-1.12-3-2.5-3-2.5 1.343-2.5 3 1.12 3 2.5 3zm-26 0c1.38 0 2.5-1.343 2.5-3s-1.12-3-2.5-3-2.5 1.343-2.5 3 1.12 3 2.5 3zm-27 0c1.38 0 2.5-1.343 2.5-3s-1.12-3-2.5-3-2.5 1.343-2.5 3 1.12 3 2.5 3zm-27 0c1.38 0 2.5-1.343 2.5-3s-1.12-3-2.5-3-2.5 1.343-2.5 3 1.12 3 2.5 3zm770-18c1.38 0 2.5-1.343 2.5-3s-1.12-3-2.5-3-2.5 1.343-2.5 3 1.12 3 2.5 3zm-27 0c1.38 0 2.5-1.343 2.5-3s-1.12-3-2.5-3-2.5 1.343-2.5 3 1.12 3 2.5 3zm-26 0c1.38 0 2.5-1.343 2.5-3s-1.12-3-2.5-3-2.5 1.343-2.5 3 1.12 3 2.5 3zm-26 0c1.38 0 2.5-1.343 2.5-3s-1.12-3-2.5-3-2.5 1.343-2.5 3 1.12 3 2.5 3zm-27 0c1.38 0 2.5-1.343 2.5-3s-1.12-3-2.5-3-2.5 1.343-2.5 3 1.12 3 2.5 3zm-27 0c1.38 0 2.5-1.343 2.5-3s-1.12-3-2.5-3-2.5 1.343-2.5 3 1.12 3 2.5 3zm-26 0c1.38 0 2.5-1.343 2.5-3s-1.12-3-2.5-3-2.5 1.343-2.5 3 1.12 3 2.5 3zm-26 0c1.38 0 2.5-1.343 2.5-3s-1.12-3-2.5-3-2.5 1.343-2.5 3 1.12 3 2.5 3zm-27 0c1.38 0 2.5-1.343 2.5-3s-1.12-3-2.5-3-2.5 1.343-2.5 3 1.12 3 2.5 3zm-27 0c1.38 0 2.5-1.343 2.5-3s-1.12-3-2.5-3-2.5 1.343-2.5 3 1.12 3 2.5 3zm-27 0c1.38 0 2.5-1.343 2.5-3s-1.12-3-2.5-3-2.5 1.343-2.5 3 1.12 3 2.5 3zm-25 0c1.38 0 2.5-1.343 2.5-3s-1.12-3-2.5-3-2.5 1.343-2.5 3 1.12 3 2.5 3zm-27 0c1.38 0 2.5-1.343 2.5-3s-1.12-3-2.5-3-2.5 1.343-2.5 3 1.12 3 2.5 3zm-27 0c1.38 0 2.5-1.343 2.5-3s-1.12-3-2.5-3-2.5 1.343-2.5 3 1.12 3 2.5 3zm-27 0c1.38 0 2.5-1.343 2.5-3s-1.12-3-2.5-3-2.5 1.343-2.5 3 1.12 3 2.5 3zm-26 0c1.38 0 2.5-1.343 2.5-3s-1.12-3-2.5-3-2.5 1.343-2.5 3 1.12 3 2.5 3zm-26 0c1.38 0 2.5-1.343 2.5-3s-1.12-3-2.5-3-2.5 1.343-2.5 3 1.12 3 2.5 3zm-27 0c1.38 0 2.5-1.343 2.5-3s-1.12-3-2.5-3-2.5 1.343-2.5 3 1.12 3 2.5 3zm-27 0c1.38 0 2.5-1.343 2.5-3s-1.12-3-2.5-3-2.5 1.343-2.5 3 1.12 3 2.5 3zm-26 0c1.38 0 2.5-1.343 2.5-3s-1.12-3-2.5-3-2.5 1.343-2.5 3 1.12 3 2.5 3zm-27 0c1.38 0 2.5-1.343 2.5-3s-1.12-3-2.5-3-2.5 1.343-2.5 3 1.12 3 2.5 3zm-26 0c1.38 0 2.5-1.343 2.5-3s-1.12-3-2.5-3-2.5 1.343-2.5 3 1.12 3 2.5 3zm-27 0c1.38 0 2.5-1.343 2.5-3s-1.12-3-2.5-3-2.5 1.343-2.5 3 1.12 3 2.5 3zm-26 0c1.38 0 2.5-1.343 2.5-3s-1.12-3-2.5-3-2.5 1.343-2.5 3 1.12 3 2.5 3zm-27 0c1.38 0 2.5-1.343 2.5-3s-1.12-3-2.5-3-2.5 1.343-2.5 3 1.12 3 2.5 3zm-27 0c1.38 0 2.5-1.343 2.5-3s-1.12-3-2.5-3-2.5 1.343-2.5 3 1.12 3 2.5 3zm-26 0c1.38 0 2.5-1.343 2.5-3s-1.12-3-2.5-3-2.5 1.343-2.5 3 1.12 3 2.5 3zm-26 0c1.38 0 2.5-1.343 2.5-3s-1.12-3-2.5-3-2.5 1.343-2.5 3 1.12 3 2.5 3zm-27 0c1.38 0 2.5-1.343 2.5-3s-1.12-3-2.5-3-2.5 1.343-2.5 3 1.12 3 2.5 3zm-27 0c1.38 0 2.5-1.343 2.5-3s-1.12-3-2.5-3-2.5 1.343-2.5 3 1.12 3 2.5 3zm770-19c1.38 0 2.5-1.343 2.5-3s-1.12-3-2.5-3-2.5 1.343-2.5 3 1.12 3 2.5 3zm-27 0c1.38 0 2.5-1.343 2.5-3s-1.12-3-2.5-3-2.5 1.343-2.5 3 1.12 3 2.5 3zm-26 0c1.38 0 2.5-1.343 2.5-3s-1.12-3-2.5-3-2.5 1.343-2.5 3 1.12 3 2.5 3zm-26 0c1.38 0 2.5-1.343 2.5-3s-1.12-3-2.5-3-2.5 1.343-2.5 3 1.12 3 2.5 3zm-27 0c1.38 0 2.5-1.343 2.5-3s-1.12-3-2.5-3-2.5 1.343-2.5 3 1.12 3 2.5 3zm-27 0c1.38 0 2.5-1.343 2.5-3s-1.12-3-2.5-3-2.5 1.343-2.5 3 1.12 3 2.5 3zm-26 0c1.38 0 2.5-1.343 2.5-3s-1.12-3-2.5-3-2.5 1.343-2.5 3 1.12 3 2.5 3zm-26 0c1.38 0 2.5-1.343 2.5-3s-1.12-3-2.5-3-2.5 1.343-2.5 3 1.12 3 2.5 3zm-27 0c1.38 0 2.5-1.343 2.5-3s-1.12-3-2.5-3-2.5 1.343-2.5 3 1.12 3 2.5 3zm-27 0c1.38 0 2.5-1.343 2.5-3s-1.12-3-2.5-3-2.5 1.343-2.5 3 1.12 3 2.5 3zm-27 0c1.38 0 2.5-1.343 2.5-3s-1.12-3-2.5-3-2.5 1.343-2.5 3 1.12 3 2.5 3zm-25 0c1.38 0 2.5-1.343 2.5-3s-1.12-3-2.5-3-2.5 1.343-2.5 3 1.12 3 2.5 3zm-27 0c1.38 0 2.5-1.343 2.5-3s-1.12-3-2.5-3-2.5 1.343-2.5 3 1.12 3 2.5 3zm-27 0c1.38 0 2.5-1.343 2.5-3s-1.12-3-2.5-3-2.5 1.343-2.5 3 1.12 3 2.5 3zm-27 0c1.38 0 2.5-1.343 2.5-3s-1.12-3-2.5-3-2.5 1.343-2.5 3 1.12 3 2.5 3zm-26 0c1.38 0 2.5-1.343 2.5-3s-1.12-3-2.5-3-2.5 1.343-2.5 3 1.12 3 2.5 3zm-26 0c1.38 0 2.5-1.343 2.5-3s-1.12-3-2.5-3-2.5 1.343-2.5 3 1.12 3 2.5 3zm-27 0c1.38 0 2.5-1.343 2.5-3s-1.12-3-2.5-3-2.5 1.343-2.5 3 1.12 3 2.5 3zm-27 0c1.38 0 2.5-1.343 2.5-3s-1.12-3-2.5-3-2.5 1.343-2.5 3 1.12 3 2.5 3zm-26 0c1.38 0 2.5-1.343 2.5-3s-1.12-3-2.5-3-2.5 1.343-2.5 3 1.12 3 2.5 3zm-27 0c1.38 0 2.5-1.343 2.5-3s-1.12-3-2.5-3-2.5 1.343-2.5 3 1.12 3 2.5 3zm-26 0c1.38 0 2.5-1.343 2.5-3s-1.12-3-2.5-3-2.5 1.343-2.5 3 1.12 3 2.5 3zm-27 0c1.38 0 2.5-1.343 2.5-3s-1.12-3-2.5-3-2.5 1.343-2.5 3 1.12 3 2.5 3zm-26 0c1.38 0 2.5-1.343 2.5-3s-1.12-3-2.5-3-2.5 1.343-2.5 3 1.12 3 2.5 3zm-27 0c1.38 0 2.5-1.343 2.5-3s-1.12-3-2.5-3-2.5 1.343-2.5 3 1.12 3 2.5 3zm-27 0c1.38 0 2.5-1.343 2.5-3s-1.12-3-2.5-3-2.5 1.343-2.5 3 1.12 3 2.5 3zm-26 0c1.38 0 2.5-1.343 2.5-3s-1.12-3-2.5-3-2.5 1.343-2.5 3 1.12 3 2.5 3zm-26 0c1.38 0 2.5-1.343 2.5-3s-1.12-3-2.5-3-2.5 1.343-2.5 3 1.12 3 2.5 3zm-27 0c1.38 0 2.5-1.343 2.5-3s-1.12-3-2.5-3-2.5 1.343-2.5 3 1.12 3 2.5 3zm-27 0c1.38 0 2.5-1.343 2.5-3s-1.12-3-2.5-3-2.5 1.343-2.5 3 1.12 3 2.5 3zm770-19c1.38 0 2.5-1.343 2.5-3s-1.12-3-2.5-3-2.5 1.343-2.5 3 1.12 3 2.5 3zm-27 0c1.38 0 2.5-1.343 2.5-3s-1.12-3-2.5-3-2.5 1.343-2.5 3 1.12 3 2.5 3zm-26 0c1.38 0 2.5-1.343 2.5-3s-1.12-3-2.5-3-2.5 1.343-2.5 3 1.12 3 2.5 3zm-26 0c1.38 0 2.5-1.343 2.5-3s-1.12-3-2.5-3-2.5 1.343-2.5 3 1.12 3 2.5 3zm-27 0c1.38 0 2.5-1.343 2.5-3s-1.12-3-2.5-3-2.5 1.343-2.5 3 1.12 3 2.5 3zm-27 0c1.38 0 2.5-1.343 2.5-3s-1.12-3-2.5-3-2.5 1.343-2.5 3 1.12 3 2.5 3zm-26 0c1.38 0 2.5-1.343 2.5-3s-1.12-3-2.5-3-2.5 1.343-2.5 3 1.12 3 2.5 3zm-26 0c1.38 0 2.5-1.343 2.5-3s-1.12-3-2.5-3-2.5 1.343-2.5 3 1.12 3 2.5 3zm-27 0c1.38 0 2.5-1.343 2.5-3s-1.12-3-2.5-3-2.5 1.343-2.5 3 1.12 3 2.5 3zm-27 0c1.38 0 2.5-1.343 2.5-3s-1.12-3-2.5-3-2.5 1.343-2.5 3 1.12 3 2.5 3zm-27 0c1.38 0 2.5-1.343 2.5-3s-1.12-3-2.5-3-2.5 1.343-2.5 3 1.12 3 2.5 3zm-25 0c1.38 0 2.5-1.343 2.5-3s-1.12-3-2.5-3-2.5 1.343-2.5 3 1.12 3 2.5 3zm-27 0c1.38 0 2.5-1.343 2.5-3s-1.12-3-2.5-3-2.5 1.343-2.5 3 1.12 3 2.5 3zm-27 0c1.38 0 2.5-1.343 2.5-3s-1.12-3-2.5-3-2.5 1.343-2.5 3 1.12 3 2.5 3zm-27 0c1.38 0 2.5-1.343 2.5-3s-1.12-3-2.5-3-2.5 1.343-2.5 3 1.12 3 2.5 3zm-26 0c1.38 0 2.5-1.343 2.5-3s-1.12-3-2.5-3-2.5 1.343-2.5 3 1.12 3 2.5 3zm-26 0c1.38 0 2.5-1.343 2.5-3s-1.12-3-2.5-3-2.5 1.343-2.5 3 1.12 3 2.5 3zm-27 0c1.38 0 2.5-1.343 2.5-3s-1.12-3-2.5-3-2.5 1.343-2.5 3 1.12 3 2.5 3zm-27 0c1.38 0 2.5-1.343 2.5-3s-1.12-3-2.5-3-2.5 1.343-2.5 3 1.12 3 2.5 3zm-26 0c1.38 0 2.5-1.343 2.5-3s-1.12-3-2.5-3-2.5 1.343-2.5 3 1.12 3 2.5 3zm-27 0c1.38 0 2.5-1.343 2.5-3s-1.12-3-2.5-3-2.5 1.343-2.5 3 1.12 3 2.5 3zm-26 0c1.38 0 2.5-1.343 2.5-3s-1.12-3-2.5-3-2.5 1.343-2.5 3 1.12 3 2.5 3zm-27 0c1.38 0 2.5-1.343 2.5-3s-1.12-3-2.5-3-2.5 1.343-2.5 3 1.12 3 2.5 3zm-26 0c1.38 0 2.5-1.343 2.5-3s-1.12-3-2.5-3-2.5 1.343-2.5 3 1.12 3 2.5 3zm-27 0c1.38 0 2.5-1.343 2.5-3s-1.12-3-2.5-3-2.5 1.343-2.5 3 1.12 3 2.5 3zm-27 0c1.38 0 2.5-1.343 2.5-3s-1.12-3-2.5-3-2.5 1.343-2.5 3 1.12 3 2.5 3zm-26 0c1.38 0 2.5-1.343 2.5-3s-1.12-3-2.5-3-2.5 1.343-2.5 3 1.12 3 2.5 3zm-26 0c1.38 0 2.5-1.343 2.5-3s-1.12-3-2.5-3-2.5 1.343-2.5 3 1.12 3 2.5 3zm-27 0c1.38 0 2.5-1.343 2.5-3s-1.12-3-2.5-3-2.5 1.343-2.5 3 1.12 3 2.5 3zm-27 0C3.88 99 5 97.657 5 96s-1.12-3-2.5-3S0 94.343 0 96s1.12 3 2.5 3zm770-18c1.38 0 2.5-1.343 2.5-3s-1.12-3-2.5-3-2.5 1.343-2.5 3 1.12 3 2.5 3zm-27 0c1.38 0 2.5-1.343 2.5-3s-1.12-3-2.5-3-2.5 1.343-2.5 3 1.12 3 2.5 3zm-26 0c1.38 0 2.5-1.343 2.5-3s-1.12-3-2.5-3-2.5 1.343-2.5 3 1.12 3 2.5 3zm-26 0c1.38 0 2.5-1.343 2.5-3s-1.12-3-2.5-3-2.5 1.343-2.5 3 1.12 3 2.5 3zm-27 0c1.38 0 2.5-1.343 2.5-3s-1.12-3-2.5-3-2.5 1.343-2.5 3 1.12 3 2.5 3zm-27 0c1.38 0 2.5-1.343 2.5-3s-1.12-3-2.5-3-2.5 1.343-2.5 3 1.12 3 2.5 3zm-26 0c1.38 0 2.5-1.343 2.5-3s-1.12-3-2.5-3-2.5 1.343-2.5 3 1.12 3 2.5 3zm-26 0c1.38 0 2.5-1.343 2.5-3s-1.12-3-2.5-3-2.5 1.343-2.5 3 1.12 3 2.5 3zm-27 0c1.38 0 2.5-1.343 2.5-3s-1.12-3-2.5-3-2.5 1.343-2.5 3 1.12 3 2.5 3zm-27 0c1.38 0 2.5-1.343 2.5-3s-1.12-3-2.5-3-2.5 1.343-2.5 3 1.12 3 2.5 3zm-27 0c1.38 0 2.5-1.343 2.5-3s-1.12-3-2.5-3-2.5 1.343-2.5 3 1.12 3 2.5 3zm-25 0c1.38 0 2.5-1.343 2.5-3s-1.12-3-2.5-3-2.5 1.343-2.5 3 1.12 3 2.5 3zm-27 0c1.38 0 2.5-1.343 2.5-3s-1.12-3-2.5-3-2.5 1.343-2.5 3 1.12 3 2.5 3zm-27 0c1.38 0 2.5-1.343 2.5-3s-1.12-3-2.5-3-2.5 1.343-2.5 3 1.12 3 2.5 3zm-27 0c1.38 0 2.5-1.343 2.5-3s-1.12-3-2.5-3-2.5 1.343-2.5 3 1.12 3 2.5 3zm-26 0c1.38 0 2.5-1.343 2.5-3s-1.12-3-2.5-3-2.5 1.343-2.5 3 1.12 3 2.5 3zm-26 0c1.38 0 2.5-1.343 2.5-3s-1.12-3-2.5-3-2.5 1.343-2.5 3 1.12 3 2.5 3zm-27 0c1.38 0 2.5-1.343 2.5-3s-1.12-3-2.5-3-2.5 1.343-2.5 3 1.12 3 2.5 3zm-27 0c1.38 0 2.5-1.343 2.5-3s-1.12-3-2.5-3-2.5 1.343-2.5 3 1.12 3 2.5 3zm-26 0c1.38 0 2.5-1.343 2.5-3s-1.12-3-2.5-3-2.5 1.343-2.5 3 1.12 3 2.5 3zm-27 0c1.38 0 2.5-1.343 2.5-3s-1.12-3-2.5-3-2.5 1.343-2.5 3 1.12 3 2.5 3zm-26 0c1.38 0 2.5-1.343 2.5-3s-1.12-3-2.5-3-2.5 1.343-2.5 3 1.12 3 2.5 3zm-27 0c1.38 0 2.5-1.343 2.5-3s-1.12-3-2.5-3-2.5 1.343-2.5 3 1.12 3 2.5 3zm-26 0c1.38 0 2.5-1.343 2.5-3s-1.12-3-2.5-3-2.5 1.343-2.5 3 1.12 3 2.5 3zm-27 0c1.38 0 2.5-1.343 2.5-3s-1.12-3-2.5-3-2.5 1.343-2.5 3 1.12 3 2.5 3zm-27 0c1.38 0 2.5-1.343 2.5-3s-1.12-3-2.5-3-2.5 1.343-2.5 3 1.12 3 2.5 3zm-26 0c1.38 0 2.5-1.343 2.5-3s-1.12-3-2.5-3-2.5 1.343-2.5 3 1.12 3 2.5 3zm-26 0c1.38 0 2.5-1.343 2.5-3s-1.12-3-2.5-3-2.5 1.343-2.5 3 1.12 3 2.5 3zm-27 0c1.38 0 2.5-1.343 2.5-3s-1.12-3-2.5-3-2.5 1.343-2.5 3 1.12 3 2.5 3zm-27 0C3.88 81 5 79.657 5 78s-1.12-3-2.5-3S0 76.343 0 78s1.12 3 2.5 3zm770-19c1.38 0 2.5-1.343 2.5-3s-1.12-3-2.5-3-2.5 1.343-2.5 3 1.12 3 2.5 3zm-27 0c1.38 0 2.5-1.343 2.5-3s-1.12-3-2.5-3-2.5 1.343-2.5 3 1.12 3 2.5 3zm-26 0c1.38 0 2.5-1.343 2.5-3s-1.12-3-2.5-3-2.5 1.343-2.5 3 1.12 3 2.5 3zm-26 0c1.38 0 2.5-1.343 2.5-3s-1.12-3-2.5-3-2.5 1.343-2.5 3 1.12 3 2.5 3zm-27 0c1.38 0 2.5-1.343 2.5-3s-1.12-3-2.5-3-2.5 1.343-2.5 3 1.12 3 2.5 3zm-27 0c1.38 0 2.5-1.343 2.5-3s-1.12-3-2.5-3-2.5 1.343-2.5 3 1.12 3 2.5 3zm-26 0c1.38 0 2.5-1.343 2.5-3s-1.12-3-2.5-3-2.5 1.343-2.5 3 1.12 3 2.5 3zm-26 0c1.38 0 2.5-1.343 2.5-3s-1.12-3-2.5-3-2.5 1.343-2.5 3 1.12 3 2.5 3zm-27 0c1.38 0 2.5-1.343 2.5-3s-1.12-3-2.5-3-2.5 1.343-2.5 3 1.12 3 2.5 3zm-27 0c1.38 0 2.5-1.343 2.5-3s-1.12-3-2.5-3-2.5 1.343-2.5 3 1.12 3 2.5 3zm-27 0c1.38 0 2.5-1.343 2.5-3s-1.12-3-2.5-3-2.5 1.343-2.5 3 1.12 3 2.5 3zm-25 0c1.38 0 2.5-1.343 2.5-3s-1.12-3-2.5-3-2.5 1.343-2.5 3 1.12 3 2.5 3zm-27 0c1.38 0 2.5-1.343 2.5-3s-1.12-3-2.5-3-2.5 1.343-2.5 3 1.12 3 2.5 3zm-27 0c1.38 0 2.5-1.343 2.5-3s-1.12-3-2.5-3-2.5 1.343-2.5 3 1.12 3 2.5 3zm-27 0c1.38 0 2.5-1.343 2.5-3s-1.12-3-2.5-3-2.5 1.343-2.5 3 1.12 3 2.5 3zm-26 0c1.38 0 2.5-1.343 2.5-3s-1.12-3-2.5-3-2.5 1.343-2.5 3 1.12 3 2.5 3zm-26 0c1.38 0 2.5-1.343 2.5-3s-1.12-3-2.5-3-2.5 1.343-2.5 3 1.12 3 2.5 3zm-27 0c1.38 0 2.5-1.343 2.5-3s-1.12-3-2.5-3-2.5 1.343-2.5 3 1.12 3 2.5 3zm-27 0c1.38 0 2.5-1.343 2.5-3s-1.12-3-2.5-3-2.5 1.343-2.5 3 1.12 3 2.5 3zm-26 0c1.38 0 2.5-1.343 2.5-3s-1.12-3-2.5-3-2.5 1.343-2.5 3 1.12 3 2.5 3zm-27 0c1.38 0 2.5-1.343 2.5-3s-1.12-3-2.5-3-2.5 1.343-2.5 3 1.12 3 2.5 3zm-26 0c1.38 0 2.5-1.343 2.5-3s-1.12-3-2.5-3-2.5 1.343-2.5 3 1.12 3 2.5 3zm-27 0c1.38 0 2.5-1.343 2.5-3s-1.12-3-2.5-3-2.5 1.343-2.5 3 1.12 3 2.5 3zm-26 0c1.38 0 2.5-1.343 2.5-3s-1.12-3-2.5-3-2.5 1.343-2.5 3 1.12 3 2.5 3zm-27 0c1.38 0 2.5-1.343 2.5-3s-1.12-3-2.5-3-2.5 1.343-2.5 3 1.12 3 2.5 3zm-27 0c1.38 0 2.5-1.343 2.5-3s-1.12-3-2.5-3-2.5 1.343-2.5 3 1.12 3 2.5 3zm-26 0c1.38 0 2.5-1.343 2.5-3s-1.12-3-2.5-3-2.5 1.343-2.5 3 1.12 3 2.5 3zm-26 0c1.38 0 2.5-1.343 2.5-3s-1.12-3-2.5-3-2.5 1.343-2.5 3 1.12 3 2.5 3zm-27 0c1.38 0 2.5-1.343 2.5-3s-1.12-3-2.5-3-2.5 1.343-2.5 3 1.12 3 2.5 3zm-27 0C3.88 62 5 60.657 5 59s-1.12-3-2.5-3S0 57.343 0 59s1.12 3 2.5 3zm770-18c1.38 0 2.5-1.343 2.5-3s-1.12-3-2.5-3-2.5 1.343-2.5 3 1.12 3 2.5 3zm-27 0c1.38 0 2.5-1.343 2.5-3s-1.12-3-2.5-3-2.5 1.343-2.5 3 1.12 3 2.5 3zm-26 0c1.38 0 2.5-1.343 2.5-3s-1.12-3-2.5-3-2.5 1.343-2.5 3 1.12 3 2.5 3zm-26 0c1.38 0 2.5-1.343 2.5-3s-1.12-3-2.5-3-2.5 1.343-2.5 3 1.12 3 2.5 3zm-27 0c1.38 0 2.5-1.343 2.5-3s-1.12-3-2.5-3-2.5 1.343-2.5 3 1.12 3 2.5 3zm-27 0c1.38 0 2.5-1.343 2.5-3s-1.12-3-2.5-3-2.5 1.343-2.5 3 1.12 3 2.5 3zm-26 0c1.38 0 2.5-1.343 2.5-3s-1.12-3-2.5-3-2.5 1.343-2.5 3 1.12 3 2.5 3zm-26 0c1.38 0 2.5-1.343 2.5-3s-1.12-3-2.5-3-2.5 1.343-2.5 3 1.12 3 2.5 3zm-27 0c1.38 0 2.5-1.343 2.5-3s-1.12-3-2.5-3-2.5 1.343-2.5 3 1.12 3 2.5 3zm-27 0c1.38 0 2.5-1.343 2.5-3s-1.12-3-2.5-3-2.5 1.343-2.5 3 1.12 3 2.5 3zm-27 0c1.38 0 2.5-1.343 2.5-3s-1.12-3-2.5-3-2.5 1.343-2.5 3 1.12 3 2.5 3zm-25 0c1.38 0 2.5-1.343 2.5-3s-1.12-3-2.5-3-2.5 1.343-2.5 3 1.12 3 2.5 3zm-27 0c1.38 0 2.5-1.343 2.5-3s-1.12-3-2.5-3-2.5 1.343-2.5 3 1.12 3 2.5 3zm-27 0c1.38 0 2.5-1.343 2.5-3s-1.12-3-2.5-3-2.5 1.343-2.5 3 1.12 3 2.5 3zm-27 0c1.38 0 2.5-1.343 2.5-3s-1.12-3-2.5-3-2.5 1.343-2.5 3 1.12 3 2.5 3zm-26 0c1.38 0 2.5-1.343 2.5-3s-1.12-3-2.5-3-2.5 1.343-2.5 3 1.12 3 2.5 3zm-26 0c1.38 0 2.5-1.343 2.5-3s-1.12-3-2.5-3-2.5 1.343-2.5 3 1.12 3 2.5 3zm-27 0c1.38 0 2.5-1.343 2.5-3s-1.12-3-2.5-3-2.5 1.343-2.5 3 1.12 3 2.5 3zm-27 0c1.38 0 2.5-1.343 2.5-3s-1.12-3-2.5-3-2.5 1.343-2.5 3 1.12 3 2.5 3zm-26 0c1.38 0 2.5-1.343 2.5-3s-1.12-3-2.5-3-2.5 1.343-2.5 3 1.12 3 2.5 3zm-27 0c1.38 0 2.5-1.343 2.5-3s-1.12-3-2.5-3-2.5 1.343-2.5 3 1.12 3 2.5 3zm-26 0c1.38 0 2.5-1.343 2.5-3s-1.12-3-2.5-3-2.5 1.343-2.5 3 1.12 3 2.5 3zm-27 0c1.38 0 2.5-1.343 2.5-3s-1.12-3-2.5-3-2.5 1.343-2.5 3 1.12 3 2.5 3zm-26 0c1.38 0 2.5-1.343 2.5-3s-1.12-3-2.5-3-2.5 1.343-2.5 3 1.12 3 2.5 3zm-27 0c1.38 0 2.5-1.343 2.5-3s-1.12-3-2.5-3-2.5 1.343-2.5 3 1.12 3 2.5 3zm-27 0c1.38 0 2.5-1.343 2.5-3s-1.12-3-2.5-3-2.5 1.343-2.5 3 1.12 3 2.5 3zm-26 0c1.38 0 2.5-1.343 2.5-3s-1.12-3-2.5-3-2.5 1.343-2.5 3 1.12 3 2.5 3zm-26 0c1.38 0 2.5-1.343 2.5-3s-1.12-3-2.5-3-2.5 1.343-2.5 3 1.12 3 2.5 3zm-27 0c1.38 0 2.5-1.343 2.5-3s-1.12-3-2.5-3-2.5 1.343-2.5 3 1.12 3 2.5 3zm-27 0C3.88 44 5 42.657 5 41s-1.12-3-2.5-3S0 39.343 0 41s1.12 3 2.5 3zm770-19c1.38 0 2.5-1.343 2.5-3s-1.12-3-2.5-3-2.5 1.343-2.5 3 1.12 3 2.5 3zm-27 0c1.38 0 2.5-1.343 2.5-3s-1.12-3-2.5-3-2.5 1.343-2.5 3 1.12 3 2.5 3zm-26 0c1.38 0 2.5-1.343 2.5-3s-1.12-3-2.5-3-2.5 1.343-2.5 3 1.12 3 2.5 3zm-26 0c1.38 0 2.5-1.343 2.5-3s-1.12-3-2.5-3-2.5 1.343-2.5 3 1.12 3 2.5 3zm-27 0c1.38 0 2.5-1.343 2.5-3s-1.12-3-2.5-3-2.5 1.343-2.5 3 1.12 3 2.5 3zm-27 0c1.38 0 2.5-1.343 2.5-3s-1.12-3-2.5-3-2.5 1.343-2.5 3 1.12 3 2.5 3zm-26 0c1.38 0 2.5-1.343 2.5-3s-1.12-3-2.5-3-2.5 1.343-2.5 3 1.12 3 2.5 3zm-26 0c1.38 0 2.5-1.343 2.5-3s-1.12-3-2.5-3-2.5 1.343-2.5 3 1.12 3 2.5 3zm-27 0c1.38 0 2.5-1.343 2.5-3s-1.12-3-2.5-3-2.5 1.343-2.5 3 1.12 3 2.5 3zm-27 0c1.38 0 2.5-1.343 2.5-3s-1.12-3-2.5-3-2.5 1.343-2.5 3 1.12 3 2.5 3zm-27 0c1.38 0 2.5-1.343 2.5-3s-1.12-3-2.5-3-2.5 1.343-2.5 3 1.12 3 2.5 3zm-25 0c1.38 0 2.5-1.343 2.5-3s-1.12-3-2.5-3-2.5 1.343-2.5 3 1.12 3 2.5 3zm-27 0c1.38 0 2.5-1.343 2.5-3s-1.12-3-2.5-3-2.5 1.343-2.5 3 1.12 3 2.5 3zm-27 0c1.38 0 2.5-1.343 2.5-3s-1.12-3-2.5-3-2.5 1.343-2.5 3 1.12 3 2.5 3zm-27 0c1.38 0 2.5-1.343 2.5-3s-1.12-3-2.5-3-2.5 1.343-2.5 3 1.12 3 2.5 3zm-26 0c1.38 0 2.5-1.343 2.5-3s-1.12-3-2.5-3-2.5 1.343-2.5 3 1.12 3 2.5 3zm-26 0c1.38 0 2.5-1.343 2.5-3s-1.12-3-2.5-3-2.5 1.343-2.5 3 1.12 3 2.5 3zm-27 0c1.38 0 2.5-1.343 2.5-3s-1.12-3-2.5-3-2.5 1.343-2.5 3 1.12 3 2.5 3zm-27 0c1.38 0 2.5-1.343 2.5-3s-1.12-3-2.5-3-2.5 1.343-2.5 3 1.12 3 2.5 3zm-26 0c1.38 0 2.5-1.343 2.5-3s-1.12-3-2.5-3-2.5 1.343-2.5 3 1.12 3 2.5 3zm-27 0c1.38 0 2.5-1.343 2.5-3s-1.12-3-2.5-3-2.5 1.343-2.5 3 1.12 3 2.5 3zm-26 0c1.38 0 2.5-1.343 2.5-3s-1.12-3-2.5-3-2.5 1.343-2.5 3 1.12 3 2.5 3zm-27 0c1.38 0 2.5-1.343 2.5-3s-1.12-3-2.5-3-2.5 1.343-2.5 3 1.12 3 2.5 3zm-26 0c1.38 0 2.5-1.343 2.5-3s-1.12-3-2.5-3-2.5 1.343-2.5 3 1.12 3 2.5 3zm-27 0c1.38 0 2.5-1.343 2.5-3s-1.12-3-2.5-3-2.5 1.343-2.5 3 1.12 3 2.5 3zm-27 0c1.38 0 2.5-1.343 2.5-3s-1.12-3-2.5-3-2.5 1.343-2.5 3 1.12 3 2.5 3zm-26 0c1.38 0 2.5-1.343 2.5-3s-1.12-3-2.5-3-2.5 1.343-2.5 3 1.12 3 2.5 3zm-26 0c1.38 0 2.5-1.343 2.5-3s-1.12-3-2.5-3-2.5 1.343-2.5 3 1.12 3 2.5 3zm-27 0c1.38 0 2.5-1.343 2.5-3s-1.12-3-2.5-3-2.5 1.343-2.5 3 1.12 3 2.5 3zm-27 0C3.88 25 5 23.657 5 22s-1.12-3-2.5-3S0 20.343 0 22s1.12 3 2.5 3zm770-19c1.38 0 2.5-1.343 2.5-3s-1.12-3-2.5-3-2.5 1.343-2.5 3 1.12 3 2.5 3zm-27 0c1.38 0 2.5-1.343 2.5-3s-1.12-3-2.5-3-2.5 1.343-2.5 3 1.12 3 2.5 3zm-26 0c1.38 0 2.5-1.343 2.5-3s-1.12-3-2.5-3-2.5 1.343-2.5 3 1.12 3 2.5 3zm-26 0c1.38 0 2.5-1.343 2.5-3s-1.12-3-2.5-3-2.5 1.343-2.5 3 1.12 3 2.5 3zm-27 0c1.38 0 2.5-1.343 2.5-3s-1.12-3-2.5-3-2.5 1.343-2.5 3 1.12 3 2.5 3zm-27 0c1.38 0 2.5-1.343 2.5-3s-1.12-3-2.5-3-2.5 1.343-2.5 3 1.12 3 2.5 3zm-26 0c1.38 0 2.5-1.343 2.5-3s-1.12-3-2.5-3-2.5 1.343-2.5 3 1.12 3 2.5 3zm-26 0c1.38 0 2.5-1.343 2.5-3s-1.12-3-2.5-3-2.5 1.343-2.5 3 1.12 3 2.5 3zm-27 0c1.38 0 2.5-1.343 2.5-3s-1.12-3-2.5-3-2.5 1.343-2.5 3 1.12 3 2.5 3zm-27 0c1.38 0 2.5-1.343 2.5-3s-1.12-3-2.5-3-2.5 1.343-2.5 3 1.12 3 2.5 3zm-27 0c1.38 0 2.5-1.343 2.5-3s-1.12-3-2.5-3-2.5 1.343-2.5 3 1.12 3 2.5 3zm-25 0c1.38 0 2.5-1.343 2.5-3s-1.12-3-2.5-3-2.5 1.343-2.5 3 1.12 3 2.5 3zm-27 0c1.38 0 2.5-1.343 2.5-3s-1.12-3-2.5-3-2.5 1.343-2.5 3 1.12 3 2.5 3zm-27 0c1.38 0 2.5-1.343 2.5-3s-1.12-3-2.5-3-2.5 1.343-2.5 3 1.12 3 2.5 3zm-27 0c1.38 0 2.5-1.343 2.5-3s-1.12-3-2.5-3-2.5 1.343-2.5 3 1.12 3 2.5 3zm-26 0c1.38 0 2.5-1.343 2.5-3s-1.12-3-2.5-3-2.5 1.343-2.5 3 1.12 3 2.5 3zm-26 0c1.38 0 2.5-1.343 2.5-3s-1.12-3-2.5-3-2.5 1.343-2.5 3 1.12 3 2.5 3zm-27 0c1.38 0 2.5-1.343 2.5-3s-1.12-3-2.5-3-2.5 1.343-2.5 3 1.12 3 2.5 3zm-27 0c1.38 0 2.5-1.343 2.5-3s-1.12-3-2.5-3-2.5 1.343-2.5 3 1.12 3 2.5 3zm-26 0c1.38 0 2.5-1.343 2.5-3s-1.12-3-2.5-3-2.5 1.343-2.5 3 1.12 3 2.5 3zm-27 0c1.38 0 2.5-1.343 2.5-3s-1.12-3-2.5-3-2.5 1.343-2.5 3 1.12 3 2.5 3zm-26 0c1.38 0 2.5-1.343 2.5-3s-1.12-3-2.5-3-2.5 1.343-2.5 3 1.12 3 2.5 3zm-27 0c1.38 0 2.5-1.343 2.5-3s-1.12-3-2.5-3-2.5 1.343-2.5 3 1.12 3 2.5 3zm-26 0c1.38 0 2.5-1.343 2.5-3s-1.12-3-2.5-3-2.5 1.343-2.5 3 1.12 3 2.5 3zm-27 0c1.38 0 2.5-1.343 2.5-3s-1.12-3-2.5-3-2.5 1.343-2.5 3 1.12 3 2.5 3zm-27 0c1.38 0 2.5-1.343 2.5-3s-1.12-3-2.5-3-2.5 1.343-2.5 3 1.12 3 2.5 3zm-26 0C83.88 6 85 4.657 85 3s-1.12-3-2.5-3S80 1.343 80 3s1.12 3 2.5 3zm-26 0C57.88 6 59 4.657 59 3s-1.12-3-2.5-3S54 1.343 54 3s1.12 3 2.5 3zm-27 0C30.88 6 32 4.657 32 3s-1.12-3-2.5-3S27 1.343 27 3s1.12 3 2.5 3zm-27 0C3.88 6 5 4.657 5 3S3.88 0 2.5 0 0 1.343 0 3s1.12 3 2.5 3z" fill="url(#lfeb566rta)" fill-rule="evenodd"/>
</svg>
