<svg width="27" height="32" viewBox="0 0 27 32" xmlns="http://www.w3.org/2000/svg">
    <path d="M21.986 1.314c-.994.841-1.836 1.3-2.256 1.185-.344-.114-1.606-.573-2.753-.994-1.53-.573-2.982-.803-5.353-.803-2.906 0-3.518.153-5.735 1.262C1.798 4.03-.038 7.164 0 12.173c.038 3.135.382 4.359 1.72 6.385 1.338 1.912 3.059 3.02 5.888 3.747 3.06.803 5.239.727 6.233-.191.917-.88 1.109-1.988.382-2.6-.268-.191-1.95-.574-3.747-.841-4.932-.688-6.882-2.6-6.882-6.691 0-5.889 6.806-9.024 13.305-6.08 1.606.727 2.524 2.141 2.218 3.403-.382 1.568-1.338 1.797-4.741 1.07-3.403-.726-5.162-.343-5.582 1.11-.383 1.529.382 2.217 2.408 2.217 3.48 0 5.927 1.109 7.38 3.403 1.873 2.982 1.338 6.806-1.262 8.985-1.262 1.071-4.397 2.142-6.232 2.142-1.912 0-6.424-.995-7.953-1.721-1.262-.612-1.453-.65-1.988-.076-.842.84-.765 2.638.153 3.632 1.605 1.72 3.211 2.026 9.176 1.912 5.009-.115 5.735-.192 7.418-1.071 2.294-1.147 3.823-2.982 4.817-5.735.688-1.836.765-3.06.765-10.056 0-8.45.038-8.68 1.95-10.897 1.338-1.491 1.376-2.447.268-3.518-1.186-1.07-1.836-.956-3.71.612z" fill="#A0A3BD" fill-rule="nonzero"/>
</svg>
