<svg width="222" height="48" viewBox="0 0 222 48" xmlns="http://www.w3.org/2000/svg">
    <g fill-rule="nonzero" fill="none">
        <path d="M32.979 1.971c-1.492 1.262-2.753 1.95-3.384 1.778-.516-.172-2.409-.86-4.13-1.491-2.294-.86-4.473-1.205-8.029-1.205-4.359 0-5.276.23-8.603 1.893-6.137 3.097-8.89 7.8-8.832 15.313.057 4.703.573 6.538 2.58 9.578 2.008 2.868 4.589 4.531 8.833 5.62 4.588 1.205 7.857 1.09 9.349-.286 1.376-1.32 1.663-2.982.573-3.9-.401-.287-2.925-.86-5.62-1.262-7.399-1.032-10.324-3.9-10.324-10.037 0-8.832 10.209-13.535 19.959-9.119 2.409 1.09 3.785 3.212 3.326 5.105-.573 2.351-2.007 2.695-7.112 1.606-5.104-1.09-7.742-.517-8.373 1.663-.574 2.294.574 3.326 3.613 3.326 5.22 0 8.89 1.664 11.07 5.105 2.81 4.473 2.007 10.208-1.893 13.478-1.893 1.605-6.596 3.211-9.349 3.211-2.867 0-9.635-1.49-11.93-2.58-1.892-.918-2.179-.976-2.982-.115-1.261 1.262-1.147 3.957.23 5.448 2.409 2.581 4.817 3.04 13.764 2.868 7.514-.172 8.603-.287 11.127-1.606 3.441-1.72 5.735-4.473 7.226-8.603 1.033-2.753 1.147-4.588 1.147-15.084 0-12.675.058-13.019 2.925-16.345 2.008-2.237 2.065-3.67.402-5.277-1.778-1.605-2.753-1.433-5.563.918z" fill="#0F7ABF"/>
        <path d="M50.398 35.6h5.85c.12.48.315.945.585 1.395.27.45.787.893 1.552 1.328.765.434 1.703.652 2.813.652 1.62 0 2.925-.465 3.915-1.395.99-.93 1.485-2.19 1.485-3.78v-3.15h-.225c-.36.42-.87.84-1.53 1.26-1.23.81-2.82 1.215-4.77 1.215-2.97 0-5.438-1.028-7.403-3.082-1.965-2.055-2.947-4.703-2.947-7.943 0-3.24.982-5.888 2.947-7.943 1.965-2.055 4.433-3.082 7.403-3.082 1.86 0 3.51.45 4.95 1.35.66.42 1.185.87 1.575 1.35h.225l.45-2.25h4.95v22.32c0 3.03-.998 5.468-2.993 7.313-1.995 1.844-4.672 2.767-8.032 2.767-1.68 0-3.195-.24-4.545-.72s-2.4-1.065-3.15-1.755-1.373-1.44-1.868-2.25c-.495-.81-.825-1.515-.99-2.115-.165-.6-.247-1.095-.247-1.485zm14.58-17.865c-1.08-1.14-2.415-1.71-4.005-1.71-1.59 0-2.925.57-4.005 1.71-1.08 1.14-1.62 2.595-1.62 4.365s.54 3.225 1.62 4.365c1.08 1.14 2.415 1.71 4.005 1.71 1.59 0 2.925-.57 4.005-1.71 1.08-1.14 1.62-2.595 1.62-4.365s-.54-3.225-1.62-4.365zm11.02 9.765h5.4c0 .69.397 1.35 1.192 1.98.795.63 1.898.945 3.308.945 2.85 0 4.275-.825 4.275-2.475 0-.72-.225-1.282-.675-1.688-.45-.404-1.275-.697-2.475-.877l-3.6-.585c-4.95-.81-7.425-2.985-7.425-6.525 0-2.01.855-3.712 2.565-5.107s4.08-2.093 7.11-2.093c3.03 0 5.4.825 7.11 2.475 1.71 1.65 2.565 3.3 2.565 4.95h-5.4c0-.75-.39-1.425-1.17-2.025-.78-.6-1.815-.9-3.105-.9s-2.288.263-2.993.788c-.705.524-1.057 1.162-1.057 1.912 0 1.11 1.05 1.815 3.15 2.115l3.825.585c4.8.72 7.2 3.045 7.2 6.975 0 2.01-.848 3.675-2.543 4.995-1.695 1.32-4.147 1.98-7.357 1.98-1.62 0-3.053-.21-4.298-.63-1.245-.42-2.205-.922-2.88-1.508a7.849 7.849 0 0 1-1.665-2.002c-.435-.75-.72-1.387-.855-1.913-.135-.524-.202-.982-.202-1.372zm23.8 6.975v-22.95h5.175l.45 2.25h.225c.36-.45.87-.9 1.53-1.35 1.38-.9 2.97-1.35 4.77-1.35 2.61 0 4.762.893 6.457 2.678 1.695 1.784 2.543 4.117 2.543 6.997v13.725h-5.625V21.2c0-1.47-.458-2.662-1.373-3.577-.915-.916-2.107-1.373-3.577-1.373-1.47 0-2.663.457-3.578 1.373-.915.915-1.372 2.107-1.372 3.577v13.275h-5.625zm30.775-13.5h11.7c-.27-1.53-.893-2.775-1.868-3.735-.975-.96-2.227-1.44-3.757-1.44-1.62 0-2.948.473-3.983 1.418-1.035.945-1.732 2.197-2.092 3.757zm10.8 6.75h5.85c-.15.57-.443 1.207-.878 1.912-.435.706-1.05 1.485-1.845 2.34-.795.855-1.882 1.56-3.262 2.116-1.38.554-2.91.832-4.59.832-3.39 0-6.188-1.117-8.393-3.352-2.205-2.236-3.307-5.093-3.307-8.573 0-3.48 1.102-6.337 3.307-8.572 2.205-2.236 5.003-3.353 8.393-3.353 3.15 0 5.812 1.103 7.987 3.308 2.175 2.204 3.263 4.927 3.263 8.167 0 .27-.045.81-.135 1.62l-.09.63h-17.1c.24 1.62.915 2.925 2.025 3.915 1.11.99 2.46 1.485 4.05 1.485 1.2 0 2.22-.262 3.06-.787.84-.526 1.395-1.088 1.665-1.688zm11.65 1.35v-12.15h-3.6v-5.4h3.6V5h5.625v6.525h5.175v5.4h-5.175V27.95c0 1.05.525 1.575 1.575 1.575h3.6v4.95h-4.95c-1.89 0-3.338-.473-4.343-1.417-1.005-.946-1.507-2.273-1.507-3.983zm15.025 5.4v-6.3h6.3v6.3h-6.3zm27.175-8.55h5.625c-.21 1.02-.548 2.01-1.013 2.97-.465.96-1.102 1.913-1.912 2.858-.81.945-1.898 1.71-3.263 2.294-1.365.586-2.902.878-4.612.878-3.39 0-6.188-1.117-8.393-3.352-2.205-2.236-3.307-5.093-3.307-8.573 0-3.48 1.102-6.337 3.307-8.572 2.205-2.236 5.003-3.353 8.393-3.353 1.71 0 3.247.293 4.612.878 1.365.585 2.453 1.342 3.263 2.272.81.93 1.447 1.86 1.912 2.79.465.93.803 1.875 1.013 2.835h-5.625c-.9-2.4-2.625-3.6-5.175-3.6-1.71 0-3.15.63-4.32 1.89-1.17 1.26-1.755 2.88-1.755 4.86 0 1.98.585 3.6 1.755 4.86 1.17 1.26 2.61 1.89 4.32 1.89 2.64 0 4.365-1.275 5.175-3.825zm7.6 8.55v-4.95l11.25-12.825h-11.025v-5.175h18.225v4.95L210.023 29.3h11.475v5.175h-18.675z" fill="#14142B"/>
    </g>
</svg>
