<?xml version="1.0" encoding="UTF-8" standalone="no"?>
<svg
   width="14.961215"
   height="11.481956"
   viewBox="0 0 14.961215 11.481956"
   version="1.1"
   id="svg52"
   sodipodi:docname="crown.svg"
   xmlns:inkscape="http://www.inkscape.org/namespaces/inkscape"
   xmlns:sodipodi="http://sodipodi.sourceforge.net/DTD/sodipodi-0.dtd"
   xmlns="http://www.w3.org/2000/svg"
   xmlns:svg="http://www.w3.org/2000/svg">
  <defs
     id="defs56" />
  <sodipodi:namedview
     id="namedview54"
     pagecolor="#505050"
     bordercolor="#eeeeee"
     borderopacity="1"
     inkscape:showpageshadow="0"
     inkscape:pageopacity="0"
     inkscape:pagecheckerboard="0"
     inkscape:deskcolor="#505050"
     showgrid="false" />
  <g
     fill="none"
     fill-rule="evenodd"
     id="g50"
     transform="translate(-0.51878721,-1.8530878)">
    <path
       d="m 2.82,12.251 a 0.5,0.5 0 0 0 0.624,0.366 17.119,17.119 0 0 1 9.109,0 0.5,0.5 0 0 0 0.623,-0.367 L 14.769,5.48 A 0.5,0.5 0 0 0 14.079,4.91 L 10.918,6.314 A 0.5,0.5 0 0 1 10.278,6.1 L 8.438,2.787 a 0.5,0.5 0 0 0 -0.875,0 L 5.723,6.1 A 0.5,0.5 0 0 1 5.082,6.314 L 1.92,4.91 A 0.5,0.5 0 0 0 1.23,5.481 l 1.59,6.771 z"
       stroke="#f05324"
       stroke-width="1.4"
       stroke-linecap="round"
       stroke-linejoin="round"
       id="path48"
       inkscape:export-filename="crown.svg"
       inkscape:export-xdpi="96"
       inkscape:export-ydpi="96" />
  </g>
</svg>
