<svg width="21" height="16" viewBox="0 0 21 16" xmlns="http://www.w3.org/2000/svg">
    <path d="M6.774 16c7.43 0 11.493-6.157 11.493-11.492 0-.173 0-.346-.013-.525a8.215 8.215 0 0 0 2.014-2.094 7.955 7.955 0 0 1-2.322.636A4.048 4.048 0 0 0 19.724.29c-.79.47-1.661.803-2.563.982a4.04 4.04 0 0 0-6.879 3.686A11.468 11.468 0 0 1 1.958.741a4.04 4.04 0 0 0 1.247 5.39 3.987 3.987 0 0 1-1.834-.506v.05a4.045 4.045 0 0 0 3.242 3.958 4.035 4.035 0 0 1-1.822.068 4.044 4.044 0 0 0 3.773 2.804 8.127 8.127 0 0 1-5.977 1.68A11.424 11.424 0 0 0 6.774 16" fill="#0F7ABF" fill-rule="nonzero"/>
</svg>
